<?xml version="1.0" standalone="no"?>
<!DOCTYPE svg PUBLIC "-//W3C//DTD SVG 20010904//EN"
 "http://www.w3.org/TR/2001/REC-SVG-20010904/DTD/svg10.dtd">
<svg version="1.0" xmlns="http://www.w3.org/2000/svg"
 width="436.000000pt" height="202.000000pt" viewBox="0 0 436.000000 202.000000"
 preserveAspectRatio="xMidYMid meet">

<g transform="translate(0.000000,202.000000) scale(0.100000,-0.100000)"
fill="#000000" stroke="none">
<path d="M909 1357 c-104 -30 -190 -104 -237 -206 -22 -46 -27 -71 -27 -141 0
-76 3 -92 32 -151 39 -79 102 -140 181 -177 48 -22 71 -27 142 -27 71 0 94 5
142 27 79 37 142 98 181 177 28 58 32 75 32 151 0 76 -4 93 -32 151 -60 121
-170 196 -300 205 -40 2 -87 -2 -114 -9z"/>
<path d="M1989 1356 c-102 -27 -190 -103 -237 -205 -38 -81 -38 -202 0 -283
73 -157 235 -241 401 -208 120 23 213 96 265 208 38 81 38 202 0 283 -76 166
-257 252 -429 205z"/>
<path d="M3079 1357 c-104 -30 -190 -104 -237 -206 -22 -46 -27 -71 -27 -141
0 -76 3 -92 32 -151 39 -79 102 -140 181 -177 82 -38 202 -38 284 0 79 37 142
98 181 177 28 58 32 75 32 151 0 76 -4 93 -32 151 -60 121 -170 196 -300 205
-40 2 -87 -2 -114 -9z"/>
</g>
</svg>
