<?xml version="1.0" standalone="no"?>
<!DOCTYPE svg PUBLIC "-//W3C//DTD SVG 20010904//EN"
 "http://www.w3.org/TR/2001/REC-SVG-20010904/DTD/svg10.dtd">
<svg version="1.0" xmlns="http://www.w3.org/2000/svg"
 width="428.000000pt" height="380.000000pt" viewBox="0 0 428.000000 380.000000"
 preserveAspectRatio="xMidYMid meet">

<g transform="translate(0.000000,380.000000) scale(0.100000,-0.100000)"
fill="#000000" stroke="none">
<path d="M1414 3456 c-110 -35 -234 -129 -291 -222 -34 -57 -118 -337 -107
-356 3 -5 49 33 103 84 153 147 279 234 442 305 85 36 307 103 345 103 53 0
18 19 -88 48 -199 54 -317 65 -404 38z"/>
<path d="M2065 3259 c-248 -17 -510 -117 -720 -275 -158 -118 -327 -328 -410
-507 -44 -95 -79 -201 -102 -307 -25 -119 -25 -420 0 -538 60 -274 181 -497
377 -692 210 -209 461 -337 760 -386 116 -19 366 -13 480 11 300 65 575 230
768 461 138 164 228 343 283 562 27 106 29 128 29 307 0 215 -9 274 -65 441
-114 341 -361 623 -691 787 -224 112 -443 154 -709 136z m-109 -404 c208 -102
278 -370 147 -563 -72 -106 -186 -165 -323 -166 -75 0 -93 3 -152 31 -254 119
-313 429 -118 623 50 51 124 94 187 110 21 5 71 7 112 5 60 -3 88 -11 147 -40z
m967 -183 c35 -16 79 -43 99 -61 121 -106 161 -298 92 -451 -66 -148 -253
-250 -407 -221 -164 30 -282 140 -323 301 -48 188 89 411 283 460 70 17 186 5
256 -28z m-684 -626 c42 -22 87 -79 95 -120 19 -100 -65 -206 -163 -206 -39 0
-98 24 -129 52 -51 49 -59 157 -14 217 49 66 143 92 211 57z m-550 -195 c219
-68 328 -276 261 -495 -17 -53 -33 -79 -81 -131 -131 -140 -307 -171 -471 -83
-264 140 -267 531 -6 673 101 55 198 67 297 36z m992 -191 c117 -36 222 -142
255 -258 23 -79 16 -192 -17 -262 -32 -67 -106 -152 -164 -186 -24 -13 -75
-31 -114 -39 -174 -37 -348 49 -428 212 -25 53 -28 68 -28 163 0 93 3 112 27
162 85 182 278 268 469 208z"/>
<path d="M3204 2968 c227 -228 367 -484 426 -780 19 -95 24 -86 86 152 49 187
34 338 -44 452 -40 58 -130 141 -178 166 -61 30 -335 112 -377 112 -8 0 31
-46 87 -102z"/>
<path d="M641 1497 c-19 -73 -36 -160 -39 -194 -6 -77 12 -170 45 -242 37 -78
139 -181 215 -219 57 -27 302 -102 336 -102 8 0 -37 54 -101 119 -63 66 -140
157 -170 203 -98 149 -185 343 -217 491 -22 98 -32 90 -69 -56z"/>
<path d="M3290 923 c-105 -127 -270 -256 -442 -348 -86 -46 -291 -119 -365
-131 -86 -13 -71 -29 59 -63 165 -44 276 -57 349 -42 140 30 285 135 343 248
33 65 129 405 114 402 -2 0 -28 -30 -58 -66z"/>
</g>
</svg>
