<?xml version="1.0" standalone="no"?>
<!DOCTYPE svg PUBLIC "-//W3C//DTD SVG 20010904//EN"
 "http://www.w3.org/TR/2001/REC-SVG-20010904/DTD/svg10.dtd">
<svg version="1.0" xmlns="http://www.w3.org/2000/svg"
 width="444.000000pt" height="480.000000pt" viewBox="0 0 444.000000 480.000000"
 preserveAspectRatio="xMidYMid meet">
<metadata>
Created by potrace 1.16, written by Peter Selinger 2001-2019
</metadata>
<g transform="translate(0.000000,480.000000) scale(0.100000,-0.100000)"
fill="#000000" stroke="none">
<path d="M1255 4441 c-56 -26 -879 -852 -900 -903 -20 -49 -19 -94 4 -143 13
-27 178 -199 500 -520 265 -264 481 -484 481 -490 0 -6 -133 -143 -295 -305
-163 -162 -305 -309 -315 -326 -30 -48 -293 -1017 -294 -1085 -1 -45 4 -63 26
-96 36 -54 104 -88 161 -80 54 8 1030 273 1060 288 12 6 139 127 282 268 143
141 284 279 313 306 l52 50 488 -487 c495 -495 521 -518 592 -518 70 0 99 25
529 453 430 429 460 464 461 535 0 72 -22 98 -473 552 -243 245 -462 466 -487
493 l-44 47 380 383 c419 420 425 428 460 584 31 141 0 301 -81 418 -53 78
-330 345 -392 378 -66 35 -190 67 -263 67 -72 0 -196 -32 -263 -67 -38 -20
-157 -132 -435 -407 l-382 -380 -98 94 c-53 52 -275 271 -492 487 -267 265
-407 397 -432 408 -49 20 -94 19 -143 -4z m490 -831 l410 -410 -278 -277 -277
-278 -142 142 -142 143 131 132 c143 145 162 178 148 261 -10 56 -86 132 -142
142 -83 14 -116 -5 -261 -148 l-132 -131 -143 142 -142 142 275 275 c151 151
277 275 280 275 3 0 190 -185 415 -410z m1830 321 c52 -25 279 -254 300 -303
36 -88 11 -150 -109 -268 l-86 -85 -232 233 -233 232 85 86 c120 122 185 147
275 105z m-381 -680 l229 -229 -453 -460 c-249 -253 -659 -663 -912 -912
l-460 -453 -231 231 -231 231 394 398 c450 454 1422 1422 1430 1422 3 1 108
-102 234 -228z m361 -1451 l410 -410 -278 -277 -277 -278 -142 142 -142 143
131 132 c143 145 162 178 148 261 -10 56 -86 132 -142 142 -83 14 -116 -5
-261 -148 l-132 -131 -143 142 -142 142 275 275 c151 151 277 275 280 275 3 0
190 -185 415 -410z m-2309 -767 c-7 -7 -369 -103 -373 -100 -2 3 14 69 36 148
21 79 45 164 51 188 l12 44 138 -138 c77 -77 138 -141 136 -142z"/>
</g>
</svg>
