<?xml version="1.0" standalone="no"?>
<!DOCTYPE svg PUBLIC "-//W3C//DTD SVG 20010904//EN"
 "http://www.w3.org/TR/2001/REC-SVG-20010904/DTD/svg10.dtd">
<svg version="1.0" xmlns="http://www.w3.org/2000/svg"
 width="512.000000pt" height="444.000000pt" viewBox="0 0 512.000000 444.000000"
 preserveAspectRatio="xMidYMid meet">

<g transform="translate(0.000000,444.000000) scale(0.100000,-0.100000)"
fill="#000000" stroke="none">
<path d="M3835 3916 c-42 -19 -84 -60 -101 -101 -9 -23 -14 -70 -14 -140 l0
-105 -1352 0 c-913 0 -1365 -4 -1391 -11 -51 -14 -102 -61 -122 -113 -16 -41
-14 -72 75 -962 105 -1052 96 -1000 191 -1047 l53 -27 1380 0 c1367 0 1380 0
1422 20 24 12 54 39 70 62 l29 41 3 1019 2 1018 180 0 180 0 0 180 0 180 -287
0 c-217 -1 -295 -4 -318 -14z m-115 -1426 l0 -720 -1179 0 -1179 0 -6 48 c-7
50 -136 1367 -136 1383 0 5 471 9 1250 9 l1250 0 0 -720z"/>
<path d="M1313 1220 c-117 -24 -223 -111 -263 -215 -31 -82 -31 -188 0 -270
31 -80 115 -164 197 -195 80 -31 186 -31 268 0 80 31 164 115 195 197 31 79
31 187 0 266 -30 80 -115 166 -190 194 -68 26 -151 35 -207 23z"/>
<path d="M3653 1220 c-117 -24 -223 -111 -263 -215 -31 -82 -31 -188 0 -270
31 -80 115 -164 197 -195 80 -31 186 -31 268 0 80 31 164 115 195 197 31 79
31 187 0 266 -30 80 -115 166 -190 194 -68 26 -151 35 -207 23z"/>
</g>
</svg>
