<?xml version="1.0" standalone="no"?>
<!DOCTYPE svg PUBLIC "-//W3C//DTD SVG 20010904//EN"
 "http://www.w3.org/TR/2001/REC-SVG-20010904/DTD/svg10.dtd">
<svg version="1.0" xmlns="http://www.w3.org/2000/svg"
 width="438.000000pt" height="432.000000pt" viewBox="0 0 438.000000 432.000000"
 preserveAspectRatio="xMidYMid meet">
<metadata>
Created by potrace 1.16, written by Peter Selinger 2001-2019
</metadata>
<g transform="translate(0.000000,432.000000) scale(0.100000,-0.100000)"
fill="#000000" stroke="none">
<path d="M425 3961 c-48 -22 -69 -44 -90 -94 -13 -31 -15 -125 -15 -699 0
-622 2 -665 19 -703 22 -48 44 -69 94 -90 31 -13 125 -15 699 -15 622 0 665 2
703 19 48 22 69 44 90 94 23 55 23 1339 0 1394 -21 50 -42 72 -90 94 -38 17
-81 19 -705 19 -624 0 -667 -2 -705 -19z"/>
<path d="M2985 3971 c-306 -52 -548 -262 -648 -564 -28 -86 -30 -102 -30 -237
0 -134 3 -152 30 -236 87 -265 270 -449 536 -537 86 -28 102 -30 237 -30 135
0 151 2 237 30 266 88 449 272 536 537 27 84 30 102 30 236 0 135 -2 151 -30
237 -112 338 -394 555 -738 568 -60 2 -132 0 -160 -4z"/>
<path d="M1005 1991 c-306 -52 -548 -262 -648 -564 -28 -86 -30 -102 -30 -237
0 -134 3 -152 30 -236 87 -265 270 -449 536 -537 136 -45 338 -45 474 0 266
88 449 272 536 537 27 84 30 102 30 236 0 135 -2 151 -30 237 -112 338 -394
555 -738 568 -60 2 -132 0 -160 -4z"/>
<path d="M2405 1981 c-48 -22 -69 -44 -90 -94 -13 -31 -15 -125 -15 -699 0
-622 2 -665 19 -703 22 -48 44 -69 94 -90 31 -13 125 -15 699 -15 622 0 665 2
703 19 48 22 69 44 90 94 23 55 23 1339 0 1394 -21 50 -42 72 -90 94 -38 17
-81 19 -705 19 -624 0 -667 -2 -705 -19z"/>
</g>
</svg>
