<?xml version="1.0" standalone="no"?>
<!DOCTYPE svg PUBLIC "-//W3C//DTD SVG 20010904//EN"
 "http://www.w3.org/TR/2001/REC-SVG-20010904/DTD/svg10.dtd">
<svg version="1.0" xmlns="http://www.w3.org/2000/svg"
 width="482.000000pt" height="372.000000pt" viewBox="0 0 482.000000 372.000000"
 preserveAspectRatio="xMidYMid meet">
<metadata>
Created by potrace 1.16, written by Peter Selinger 2001-2019
</metadata>
<g transform="translate(0.000000,372.000000) scale(0.100000,-0.100000)"
fill="#000000" stroke="none">
<path d="M1045 3241 c-48 -22 -69 -44 -90 -94 -13 -32 -15 -139 -15 -841 l0
-804 -264 -441 c-292 -486 -295 -494 -260 -580 14 -34 33 -55 68 -79 l48 -32
1852 0 1852 0 46 29 c46 29 88 95 88 138 0 57 -33 118 -277 525 l-263 440 0
806 c0 762 -1 809 -19 847 -22 48 -44 69 -94 90 -32 13 -189 15 -1334 15
-1238 0 -1300 -1 -1338 -19z m2425 -976 l0 -635 -1085 0 -1085 0 0 635 0 635
1085 0 1085 0 0 -635z"/>
</g>
</svg>
