<?xml version="1.0" standalone="no"?>
<!DOCTYPE svg PUBLIC "-//W3C//DTD SVG 20010904//EN"
 "http://www.w3.org/TR/2001/REC-SVG-20010904/DTD/svg10.dtd">
<svg version="1.0" xmlns="http://www.w3.org/2000/svg"
 width="364.000000pt" height="450.000000pt" viewBox="0 0 364.000000 450.000000"
 preserveAspectRatio="xMidYMid meet">

<g transform="translate(0.000000,450.000000) scale(0.100000,-0.100000)"
fill="#000000" stroke="none">
<path d="M2165 3970 c-355 -38 -608 -253 -701 -597 -25 -92 -27 -115 -32 -375
l-4 -278 -232 0 c-127 0 -241 -3 -254 -6 -48 -13 -52 -41 -52 -351 0 -158 3
-298 6 -311 13 -46 45 -52 299 -52 l235 0 0 -770 c0 -749 1 -771 19 -789 30
-30 62 -32 369 -29 l284 3 24 28 24 28 0 764 0 764 250 3 c224 3 251 5 267 21
17 16 18 44 18 337 0 293 -1 321 -18 337 -16 16 -43 18 -267 21 l-250 3 0 197
c0 185 1 201 23 242 15 32 35 52 67 70 42 23 56 25 210 28 177 3 217 12 231
49 13 36 12 596 -2 626 -6 14 -22 30 -36 36 -27 12 -363 13 -478 1z"/>
</g>
</svg>
