<?xml version="1.0" standalone="no"?>
<!DOCTYPE svg PUBLIC "-//W3C//DTD SVG 20010904//EN"
 "http://www.w3.org/TR/2001/REC-SVG-20010904/DTD/svg10.dtd">
<svg version="1.0" xmlns="http://www.w3.org/2000/svg"
 width="516.000000pt" height="444.000000pt" viewBox="0 0 516.000000 444.000000"
 preserveAspectRatio="xMidYMid meet">

<g transform="translate(0.000000,444.000000) scale(0.100000,-0.100000)"
fill="#000000" stroke="none">
<path d="M1157 3982 l-117 -117 240 -240 240 -240 120 120 120 120 -237 237
c-131 131 -240 238 -243 238 -3 0 -58 -53 -123 -118z"/>
<path d="M3397 3862 l-237 -237 120 -120 120 -120 240 240 240 240 -117 117
c-65 65 -120 118 -123 118 -3 0 -112 -107 -243 -238z"/>
<path d="M2330 3885 c-94 -27 -165 -77 -213 -151 -20 -30 -132 -355 -208 -601
l-10 -32 -337 -3 c-387 -3 -386 -3 -486 -98 -99 -93 -137 -232 -102 -363 27
-99 70 -146 265 -288 95 -69 176 -130 179 -136 4 -5 40 -33 80 -62 39 -29 72
-56 72 -61 0 -4 -41 -133 -92 -286 -89 -271 -92 -282 -92 -374 -1 -85 2 -101
27 -147 55 -105 136 -170 247 -199 78 -20 154 -13 225 20 27 13 158 102 290
199 192 140 243 173 258 165 9 -5 120 -84 245 -175 125 -91 251 -177 279 -190
72 -33 143 -39 223 -19 111 29 192 93 247 199 25 46 28 62 28 147 -1 93 -3
102 -93 373 -51 153 -92 282 -92 287 0 4 33 32 73 61 39 29 75 57 79 62 3 6
84 67 179 136 195 142 238 189 265 288 33 123 1 252 -86 347 -100 108 -134
116 -527 116 l-311 0 -15 48 c-120 377 -182 553 -210 595 -35 53 -128 121
-185 137 -71 18 -146 20 -202 5z m231 -729 c69 -214 132 -392 140 -397 8 -5
197 -9 422 -9 325 0 407 -3 407 -13 0 -7 -150 -122 -334 -255 -291 -212 -333
-246 -329 -265 3 -12 59 -189 124 -392 65 -204 119 -378 119 -388 0 -9 -4 -17
-10 -17 -5 0 -157 108 -339 240 -181 132 -335 240 -341 240 -6 0 -160 -108
-341 -240 -182 -132 -335 -240 -340 -240 -5 0 -9 8 -9 17 0 9 54 184 120 388
66 204 120 382 120 396 0 20 -52 62 -330 264 -182 131 -330 245 -330 252 0 10
82 13 414 13 319 0 416 3 423 13 5 6 63 176 127 377 141 434 133 413 148 408
7 -3 70 -179 139 -392z"/>
<path d="M788 1906 l-287 -192 95 -143 c52 -78 99 -141 104 -139 21 8 559 374
560 381 0 7 -180 288 -184 286 0 0 -130 -87 -288 -193z"/>
<path d="M3671 1958 c-50 -77 -91 -143 -91 -147 0 -12 560 -382 569 -376 11 6
193 276 189 280 -2 1 -132 88 -289 193 l-287 190 -91 -140z"/>
<path d="M2250 730 l0 -260 170 0 170 0 0 260 0 260 -170 0 -170 0 0 -260z"/>
</g>
</svg>
