<?xml version="1.0" standalone="no"?>
<!DOCTYPE svg PUBLIC "-//W3C//DTD SVG 20010904//EN"
 "http://www.w3.org/TR/2001/REC-SVG-20010904/DTD/svg10.dtd">
<svg version="1.0" xmlns="http://www.w3.org/2000/svg"
 width="526.000000pt" height="380.000000pt" viewBox="0 0 526.000000 380.000000"
 preserveAspectRatio="xMidYMid meet">
<metadata>
Created by potrace 1.16, written by Peter Selinger 2001-2019
</metadata>
<g transform="translate(0.000000,380.000000) scale(0.100000,-0.100000)"
fill="#000000" stroke="none">
<path d="M585 3041 c-48 -22 -69 -44 -90 -94 -13 -32 -15 -134 -15 -794 0
-714 2 -760 19 -798 22 -48 44 -69 94 -90 32 -13 171 -15 1154 -15 1063 0
1120 1 1158 19 48 22 69 44 90 94 13 32 15 135 15 792 0 657 -2 760 -15 792
-21 50 -42 72 -90 94 -38 18 -94 19 -1160 19 -1066 0 -1122 -1 -1160 -19z
m2065 -521 l0 -180 -185 0 -185 0 0 -180 0 -180 185 0 185 0 0 -185 0 -185
-905 0 -905 0 0 185 0 185 180 0 180 0 0 180 0 180 -180 0 -180 0 0 180 0 180
905 0 905 0 0 -180z"/>
<path d="M1657 2509 c-181 -43 -305 -233 -268 -411 52 -253 297 -377 521 -262
55 28 122 105 158 181 22 49 27 72 27 143 0 72 -5 94 -28 145 -73 158 -245
243 -410 204z"/>
<path d="M3588 2633 c-375 -375 -398 -404 -398 -475 1 -71 31 -107 403 -483
l366 -370 128 127 128 128 -160 162 c-88 90 -180 185 -205 211 l-45 49 185 -4
c178 -3 187 -4 245 -31 96 -45 171 -139 201 -252 19 -69 19 -461 0 -530 -30
-114 -91 -189 -196 -239 l-65 -31 -1127 -3 -1128 -2 0 -180 0 -180 1114 0
c1205 0 1191 -1 1326 54 225 92 390 294 436 534 20 103 19 523 0 624 -41 210
-153 379 -321 483 -146 91 -251 115 -497 115 l-173 0 205 205 205 205 -125
125 c-69 69 -127 125 -130 125 -3 0 -170 -165 -372 -367z"/>
</g>
</svg>
