<?xml version="1.0" standalone="no"?>
<!DOCTYPE svg PUBLIC "-//W3C//DTD SVG 20010904//EN"
 "http://www.w3.org/TR/2001/REC-SVG-20010904/DTD/svg10.dtd">
<svg version="1.0" xmlns="http://www.w3.org/2000/svg"
 width="456.000000pt" height="384.000000pt" viewBox="0 0 456.000000 384.000000"
 preserveAspectRatio="xMidYMid meet">
<metadata>
Created by potrace 1.16, written by Peter Selinger 2001-2019
</metadata>
<g transform="translate(0.000000,384.000000) scale(0.100000,-0.100000)"
fill="#000000" stroke="none">
<path d="M1363 3450 c-226 -41 -443 -158 -601 -325 -209 -221 -310 -522 -273
-810 17 -131 46 -226 106 -350 81 -168 67 -152 1179 -1304 215 -222 404 -412
421 -422 36 -23 111 -25 158 -5 21 8 206 191 493 487 774 797 966 1003 1045
1114 86 120 159 315 179 478 60 479 -247 946 -721 1096 -127 40 -200 51 -340
51 -251 0 -467 -71 -656 -215 l-73 -55 -72 55 c-95 72 -249 148 -368 181 -81
22 -120 26 -260 29 -91 2 -188 0 -217 -5z m370 -370 c147 -37 303 -138 393
-253 91 -117 218 -114 315 8 132 166 343 265 563 265 135 0 222 -20 336 -76
80 -39 109 -61 180 -133 127 -129 187 -257 197 -426 10 -168 -47 -330 -164
-469 -32 -38 -67 -81 -78 -96 -40 -55 -1183 -1240 -1195 -1240 -7 0 -513 521
-931 960 -352 369 -426 463 -476 606 -23 68 -27 95 -27 199 -1 100 3 132 22
190 39 117 81 184 172 276 71 72 100 94 180 133 52 25 124 52 160 60 100 21
262 20 353 -4z"/>
<path d="M3195 2501 c-28 -12 -173 -153 -478 -462 l-438 -444 -176 179 c-99
100 -191 184 -209 192 -48 20 -93 17 -144 -8 -35 -18 -51 -35 -72 -77 -33 -64
-35 -110 -9 -166 26 -55 493 -519 543 -540 49 -20 94 -19 143 4 54 24 1052
1033 1077 1088 70 154 -82 305 -237 234z"/>
</g>
</svg>
