<?xml version="1.0" standalone="no"?>
<!DOCTYPE svg PUBLIC "-//W3C//DTD SVG 20010904//EN"
 "http://www.w3.org/TR/2001/REC-SVG-20010904/DTD/svg10.dtd">
<svg version="1.0" xmlns="http://www.w3.org/2000/svg"
 width="416.000000pt" height="420.000000pt" viewBox="0 0 416.000000 420.000000"
 preserveAspectRatio="xMidYMid meet">
<metadata>
Created by potrace 1.16, written by Peter Selinger 2001-2019
</metadata>
<g transform="translate(0.000000,420.000000) scale(0.100000,-0.100000)"
fill="#000000" stroke="none">
<path d="M1933 3941 c-50 -23 -80 -66 -123 -175 -102 -254 -89 -509 39 -781
50 -106 226 -421 247 -442 18 -18 72 -162 90 -241 24 -101 14 -225 -25 -305
-31 -65 -62 -107 -79 -107 -5 0 -15 -7 -23 -16 -21 -26 -101 -62 -167 -75 -50
-11 -74 -11 -124 0 -125 26 -209 90 -262 201 l-31 65 -5 485 c-4 425 -7 489
-21 515 -47 85 -154 118 -239 75 -83 -43 -344 -428 -475 -703 -117 -246 -159
-415 -158 -647 0 -394 142 -731 427 -1016 237 -236 498 -366 825 -410 287 -38
565 9 826 139 145 72 244 145 371 271 222 223 338 439 405 758 29 139 32 375
6 498 -105 493 -469 1036 -1195 1782 -90 92 -124 120 -160 132 -60 21 -98 20
-149 -3z m491 -861 c168 -199 268 -330 375 -495 250 -383 334 -659 287 -946
-68 -411 -344 -742 -724 -869 -239 -80 -455 -80 -694 0 -380 127 -656 458
-724 869 -33 204 4 419 111 638 l53 108 1 -147 c1 -163 16 -263 55 -358 72
-177 220 -324 396 -396 372 -151 807 35 949 406 41 108 55 204 47 336 -12 220
-57 339 -276 735 -115 207 -156 307 -165 405 l-6 59 96 -100 c53 -55 151 -165
219 -245z"/>
</g>
</svg>
