<?xml version="1.0" standalone="no"?>
<!DOCTYPE svg PUBLIC "-//W3C//DTD SVG 20010904//EN"
 "http://www.w3.org/TR/2001/REC-SVG-20010904/DTD/svg10.dtd">
<svg version="1.0" xmlns="http://www.w3.org/2000/svg"
 width="540.000000pt" height="418.000000pt" viewBox="0 0 540.000000 418.000000"
 preserveAspectRatio="xMidYMid meet">
<metadata>
Created by potrace 1.16, written by Peter Selinger 2001-2019
</metadata>
<g transform="translate(0.000000,418.000000) scale(0.100000,-0.100000)"
fill="#000000" stroke="none">
<path d="M1612 3760 c-194 -51 -345 -197 -381 -368 -6 -31 -11 -166 -11 -331
l0 -278 -57 -13 c-209 -46 -375 -200 -449 -415 -24 -69 -28 -97 -28 -195 -1
-134 20 -211 84 -320 43 -74 141 -172 218 -220 l52 -32 0 -271 c0 -195 4 -286
14 -322 38 -145 142 -241 287 -267 l59 -10 0 -89 0 -89 180 0 180 0 0 90 0 90
905 0 905 0 0 -90 0 -90 180 0 180 0 0 88 0 88 62 13 c124 25 213 95 265 206
l28 60 3 297 3 297 57 35 c72 43 178 153 219 226 60 106 77 172 77 305 0 105
-4 130 -28 200 -15 44 -43 105 -62 136 -84 139 -254 259 -401 284 l-43 7 0
282 c0 221 -3 295 -15 341 -46 174 -186 306 -381 355 -74 19 -113 20 -1053 19
-928 0 -980 -1 -1049 -19z m2033 -351 c22 -6 54 -26 72 -46 l33 -34 0 -298 0
-298 -63 -41 c-87 -56 -185 -162 -225 -244 -62 -126 -65 -142 -69 -405 l-5
-243 -724 0 -724 0 0 219 c0 205 -2 224 -26 307 -14 49 -39 113 -56 143 -42
74 -138 173 -214 223 l-64 41 0 292 c0 287 0 293 23 326 48 71 2 68 1057 68
662 1 957 -2 985 -10z m-2220 -1007 c47 -24 105 -83 131 -132 17 -32 19 -68
24 -370 5 -356 7 -367 57 -412 54 -49 27 -48 1028 -48 1001 0 974 -1 1028 48
50 45 52 56 57 412 l5 335 29 53 c113 202 404 181 486 -35 43 -113 3 -244 -94
-310 -59 -40 -103 -53 -183 -53 l-63 0 0 -405 0 -405 -1265 0 -1265 0 0 404 0
403 -82 5 c-96 5 -143 26 -199 85 -59 61 -74 98 -74 183 0 85 15 122 74 183
36 39 73 63 121 78 41 14 142 3 185 -19z"/>
</g>
</svg>
