<?xml version="1.0" standalone="no"?>
<!DOCTYPE svg PUBLIC "-//W3C//DTD SVG 20010904//EN"
 "http://www.w3.org/TR/2001/REC-SVG-20010904/DTD/svg10.dtd">
<svg version="1.0" xmlns="http://www.w3.org/2000/svg"
 width="432.000000pt" height="396.000000pt" viewBox="0 0 432.000000 396.000000"
 preserveAspectRatio="xMidYMid meet">
<metadata>
Created by potrace 1.16, written by Peter Selinger 2001-2019
</metadata>
<g transform="translate(0.000000,396.000000) scale(0.100000,-0.100000)"
fill="#000000" stroke="none">
<path d="M1195 3605 c-305 -56 -571 -279 -676 -566 -58 -158 -58 -160 -58
-1039 0 -879 0 -881 58 -1039 86 -235 287 -436 522 -522 158 -58 160 -58 1044
-58 884 0 886 0 1044 58 235 86 436 287 522 522 58 158 58 160 58 1039 0 879
0 881 -58 1039 -86 235 -287 436 -522 522 -158 58 -159 58 -1049 58 -624 -1
-831 -4 -885 -14z m1763 -290 c211 -50 397 -236 447 -447 22 -94 22 -1642 0
-1736 -50 -211 -236 -397 -447 -447 -94 -22 -1652 -22 -1746 0 -211 50 -397
236 -447 447 -22 94 -22 1642 0 1736 49 208 236 396 443 446 87 22 1660 22
1750 1z"/>
<path d="M2892 3067 c-121 -44 -175 -178 -117 -294 36 -71 89 -106 169 -111
71 -5 121 15 168 65 148 155 -19 413 -220 340z"/>
<path d="M1885 2811 c-171 -46 -288 -115 -407 -239 -91 -96 -146 -186 -190
-312 -32 -93 -33 -99 -33 -260 0 -161 1 -167 33 -260 47 -136 101 -220 206
-326 106 -105 190 -159 326 -206 93 -32 99 -33 265 -33 166 0 172 1 265 33
136 47 220 101 326 206 105 106 159 190 206 326 32 93 33 99 33 260 0 161 -1
167 -33 260 -47 136 -101 220 -206 326 -106 106 -191 159 -326 205 -88 30
-106 33 -245 36 -123 2 -163 -1 -220 -16z m290 -271 c199 -28 379 -188 442
-392 22 -70 22 -226 0 -296 -56 -182 -198 -324 -379 -379 -72 -22 -236 -22
-306 0 -182 56 -323 197 -379 379 -22 70 -22 226 0 296 47 151 149 273 288
341 115 56 201 69 334 51z"/>
</g>
</svg>
