<?xml version="1.0" standalone="no"?>
<!DOCTYPE svg PUBLIC "-//W3C//DTD SVG 20010904//EN"
 "http://www.w3.org/TR/2001/REC-SVG-20010904/DTD/svg10.dtd">
<svg version="1.0" xmlns="http://www.w3.org/2000/svg"
 width="478.000000pt" height="464.000000pt" viewBox="0 0 478.000000 464.000000"
 preserveAspectRatio="xMidYMid meet">
<metadata>
Created by potrace 1.16, written by Peter Selinger 2001-2019
</metadata>
<g transform="translate(0.000000,464.000000) scale(0.100000,-0.100000)"
fill="#000000" stroke="none">
<path d="M2985 4284 c-95 -49 -133 -155 -87 -243 30 -60 81 -92 159 -101 90
-10 149 -37 199 -92 49 -53 68 -103 68 -178 1 -77 -26 -140 -82 -193 -115
-107 -292 -98 -388 18 -41 50 -53 82 -65 165 -13 87 -47 142 -105 170 -88 43
-191 8 -236 -81 -38 -73 -11 -248 58 -380 50 -94 157 -202 250 -251 82 -44
214 -78 299 -78 234 1 462 142 563 350 42 86 72 204 72 280 0 76 -30 194 -72
280 -58 119 -162 224 -279 280 -134 64 -289 88 -354 54z"/>
<path d="M1915 3669 c-94 -31 -271 -121 -375 -190 -132 -88 -343 -300 -432
-434 -110 -167 -177 -314 -224 -495 -13 -52 -31 -99 -39 -105 -8 -5 -42 -26
-76 -45 -44 -25 -82 -58 -129 -115 -82 -98 -112 -149 -139 -239 -67 -221 -14
-448 143 -614 110 -115 249 -184 401 -199 58 -5 61 -7 92 -52 227 -326 619
-571 1038 -647 139 -25 421 -25 560 0 419 76 813 322 1038 648 31 44 35 47 92
53 262 29 476 208 551 460 22 74 25 236 5 315 -15 62 -70 179 -105 225 -58 75
-145 154 -203 184 -67 33 -60 23 -93 151 -49 192 -193 476 -271 533 -59 43
-160 34 -219 -19 -80 -72 -79 -149 3 -287 92 -155 142 -289 167 -447 23 -143
60 -192 177 -231 209 -69 269 -307 115 -451 -65 -61 -130 -82 -221 -73 -122
12 -170 -16 -255 -150 -175 -273 -468 -475 -793 -547 -140 -31 -396 -31 -536
0 -325 72 -618 274 -793 547 -86 135 -132 162 -259 150 -61 -6 -79 -4 -126 16
-70 29 -122 79 -150 142 -30 71 -24 184 13 242 39 62 89 100 162 125 73 24
119 57 142 101 8 16 24 79 34 139 78 429 360 776 774 949 109 46 132 59 156
93 55 76 48 166 -18 231 -37 36 -85 57 -127 57 -11 -1 -47 -10 -80 -21z"/>
<path d="M1906 2840 c-57 -22 -118 -78 -149 -135 -29 -53 -30 -173 -3 -225 48
-91 154 -160 246 -160 62 0 141 35 187 82 63 66 78 101 78 188 0 87 -15 122
-78 188 -74 76 -183 100 -281 62z"/>
<path d="M2816 2840 c-57 -22 -118 -78 -149 -135 -29 -53 -30 -173 -3 -225 48
-91 154 -160 246 -160 62 0 141 35 187 82 63 66 78 101 78 188 0 87 -15 122
-78 188 -74 76 -183 100 -281 62z"/>
<path d="M1755 1923 c-74 -39 -113 -110 -101 -185 9 -56 69 -147 154 -235 103
-105 209 -173 347 -220 341 -116 702 -32 947 220 160 165 196 281 116 373 -42
48 -77 64 -141 64 -69 0 -104 -23 -174 -115 -71 -94 -113 -129 -208 -176 -96
-47 -174 -63 -275 -56 -172 12 -290 77 -405 222 -45 56 -87 98 -108 109 -44
20 -113 20 -152 -1z"/>
</g>
</svg>
