<?xml version="1.0" standalone="no"?>
<!DOCTYPE svg PUBLIC "-//W3C//DTD SVG 20010904//EN"
 "http://www.w3.org/TR/2001/REC-SVG-20010904/DTD/svg10.dtd">
<svg version="1.0" xmlns="http://www.w3.org/2000/svg"
 width="424.000000pt" height="396.000000pt" viewBox="0 0 424.000000 396.000000"
 preserveAspectRatio="xMidYMid meet">
<metadata>
Created by potrace 1.16, written by Peter Selinger 2001-2019
</metadata>
<g transform="translate(0.000000,396.000000) scale(0.100000,-0.100000)"
fill="#000000" stroke="none">
<path d="M725 3611 c-82 -21 -171 -95 -216 -181 l-24 -45 0 -1385 0 -1385 24
-45 c32 -61 96 -126 156 -158 l50 -27 1385 0 1385 0 50 27 c60 32 124 97 156
158 l24 45 0 1385 0 1385 -27 50 c-32 60 -97 124 -158 156 l-45 24 -1365 2
c-751 0 -1378 -2 -1395 -6z m575 -442 c59 -18 130 -78 164 -139 28 -50 31 -63
31 -140 0 -96 -18 -143 -80 -205 -62 -62 -109 -80 -205 -80 -77 0 -90 3 -140
31 -171 97 -203 322 -65 460 30 30 68 57 95 67 54 18 148 21 200 6z m1520
-835 c135 -38 282 -157 347 -280 62 -117 63 -127 63 -681 l0 -503 -240 0 -240
0 0 436 c0 301 -4 450 -12 482 -9 36 -25 61 -68 103 -47 48 -65 59 -112 69
-89 20 -148 1 -219 -69 -42 -42 -58 -68 -67 -103 -8 -32 -12 -181 -12 -482 l0
-436 -240 0 -240 0 0 725 0 725 240 0 240 0 0 -85 c0 -47 2 -85 4 -85 2 0 29
25 60 55 64 62 194 131 271 145 62 11 152 4 225 -16z m-1370 -739 l0 -725
-240 0 -240 0 0 725 0 725 240 0 240 0 0 -725z"/>
</g>
</svg>
