<?xml version="1.0" standalone="no"?>
<!DOCTYPE svg PUBLIC "-//W3C//DTD SVG 20010904//EN"
 "http://www.w3.org/TR/2001/REC-SVG-20010904/DTD/svg10.dtd">
<svg version="1.0" xmlns="http://www.w3.org/2000/svg"
 width="424.000000pt" height="426.000000pt" viewBox="0 0 424.000000 426.000000"
 preserveAspectRatio="xMidYMid meet">
<metadata>
Created by potrace 1.16, written by Peter Selinger 2001-2019
</metadata>
<g transform="translate(0.000000,426.000000) scale(0.100000,-0.100000)"
fill="#000000" stroke="none">
<path d="M1915 3894 c-564 -62 -1036 -410 -1218 -899 -71 -191 -99 -406 -79
-602 39 -379 176 -697 466 -1078 109 -143 397 -441 556 -574 178 -150 384
-301 410 -301 7 0 24 8 38 18 15 10 34 21 42 24 25 9 218 155 340 258 160 135
447 432 556 575 230 303 360 556 424 830 74 317 62 583 -37 850 -114 307 -363
582 -668 737 -125 63 -292 120 -422 143 -88 16 -332 27 -408 19z m325 -369
c448 -73 794 -392 879 -812 36 -176 23 -346 -44 -568 -107 -355 -428 -787
-845 -1136 -80 -68 -167 -129 -181 -129 -47 0 -533 465 -664 635 -178 232
-292 437 -350 630 -67 222 -80 392 -44 568 72 357 334 645 695 766 176 59 372
75 554 46z"/>
<path d="M1922 3164 c-136 -30 -258 -94 -354 -187 -211 -206 -274 -508 -166
-791 81 -211 263 -373 488 -433 85 -23 242 -23 330 0 160 42 320 152 408 281
167 243 176 575 21 812 -162 248 -458 377 -727 318z m280 -381 c132 -59 221
-216 204 -361 -13 -112 -98 -237 -186 -277 -22 -10 -40 -21 -40 -25 0 -5 -30
-13 -66 -19 -49 -9 -80 -9 -125 0 -32 6 -59 15 -59 19 0 4 -18 15 -40 25 -22
10 -61 40 -86 67 -135 145 -136 349 -1 495 100 108 258 138 399 76z"/>
</g>
</svg>
