<?xml version="1.0" standalone="no"?>
<!DOCTYPE svg PUBLIC "-//W3C//DTD SVG 20010904//EN"
 "http://www.w3.org/TR/2001/REC-SVG-20010904/DTD/svg10.dtd">
<svg version="1.0" xmlns="http://www.w3.org/2000/svg"
 width="430.000000pt" height="414.000000pt" viewBox="0 0 430.000000 414.000000"
 preserveAspectRatio="xMidYMid meet">
<metadata>
Created by potrace 1.16, written by Peter Selinger 2001-2019
</metadata>
<g transform="translate(0.000000,414.000000) scale(0.100000,-0.100000)"
fill="#000000" stroke="none">
<path d="M1948 3920 c-186 -34 -368 -139 -463 -268 -37 -50 -98 -169 -109
-214 -4 -19 -23 -35 -73 -63 -148 -81 -239 -150 -374 -285 -241 -240 -377
-492 -451 -833 -32 -150 -32 -445 0 -605 44 -220 135 -440 254 -614 88 -130
303 -343 433 -431 378 -251 844 -336 1276 -231 316 76 574 225 801 462 381
399 527 942 402 1492 -19 87 -86 265 -137 366 -130 257 -403 537 -656 672
l-80 43 -21 64 c-67 200 -255 367 -485 429 -71 19 -250 29 -317 16z m204 -361
c154 -33 260 -142 275 -282 7 -69 -21 -165 -74 -257 -42 -72 -258 -300 -284
-300 -25 0 -239 228 -282 301 -55 93 -81 187 -73 261 20 192 226 322 438 277z
m-722 -626 c19 -41 36 -78 37 -82 2 -3 -19 -21 -46 -40 -66 -44 -187 -171
-240 -250 -57 -83 -124 -227 -150 -321 -88 -313 -21 -671 176 -935 382 -513
1130 -579 1600 -142 239 223 368 562 335 884 -14 144 -40 240 -96 359 -56 117
-111 198 -199 291 -53 56 -149 138 -174 147 -1 1 14 33 33 71 18 39 34 76 34
83 0 19 8 15 74 -32 221 -159 401 -422 470 -689 50 -192 58 -347 26 -531 -47
-274 -153 -480 -349 -677 -223 -223 -465 -338 -778 -371 -294 -31 -626 62
-865 242 -84 64 -245 232 -298 313 -93 141 -159 314 -190 492 -69 401 60 800
354 1098 54 56 192 166 206 166 3 0 21 -34 40 -76z m500 -563 c140 -99 132
-97 193 -59 81 50 188 132 259 197 l64 60 71 -58 c127 -105 211 -232 250 -380
24 -89 23 -272 -1 -360 -101 -369 -468 -600 -833 -524 -42 8 -99 24 -127 35
-205 80 -374 271 -432 489 -24 90 -25 273 -1 360 41 151 134 289 261 390 l60
48 71 -65 c38 -36 113 -96 165 -133z"/>
</g>
</svg>
