<?xml version="1.0" standalone="no"?>
<!DOCTYPE svg PUBLIC "-//W3C//DTD SVG 20010904//EN"
 "http://www.w3.org/TR/2001/REC-SVG-20010904/DTD/svg10.dtd">
<svg version="1.0" xmlns="http://www.w3.org/2000/svg"
 width="454.000000pt" height="444.000000pt" viewBox="0 0 454.000000 444.000000"
 preserveAspectRatio="xMidYMid meet">
<metadata>
Created by potrace 1.16, written by Peter Selinger 2001-2019
</metadata>
<g transform="translate(0.000000,444.000000) scale(0.100000,-0.100000)"
fill="#000000" stroke="none">
<path d="M585 3964 c-22 -8 -57 -31 -77 -51 -73 -71 -68 54 -68 -1737 l0
-1611 24 -50 c27 -59 67 -96 128 -119 39 -15 150 -16 1208 -13 1280 3 1188 -1
1395 64 364 115 663 414 779 780 62 198 61 182 61 953 0 771 1 754 -62 954
-114 364 -414 664 -779 779 -206 65 -113 61 -1399 64 -1010 2 -1175 0 -1210
-13z m767 -1573 c13 -6 64 -49 113 -97 386 -372 938 -425 1390 -132 39 25 111
84 160 132 96 92 146 118 188 99 12 -6 76 -48 141 -93 91 -63 121 -91 133
-118 27 -64 12 -94 -100 -209 -247 -254 -538 -406 -891 -468 -130 -22 -373
-20 -506 5 -349 66 -614 203 -856 444 -131 131 -146 156 -124 221 12 37 39 60
199 168 84 57 110 65 153 48z"/>
</g>
</svg>
