<?xml version="1.0" standalone="no"?>
<!DOCTYPE svg PUBLIC "-//W3C//DTD SVG 20010904//EN"
 "http://www.w3.org/TR/2001/REC-SVG-20010904/DTD/svg10.dtd">
<svg version="1.0" xmlns="http://www.w3.org/2000/svg"
 width="322.000000pt" height="234.000000pt" viewBox="0 0 322.000000 234.000000"
 preserveAspectRatio="xMidYMid meet">
<metadata>
Created by potrace 1.16, written by Peter Selinger 2001-2019
</metadata>
<g transform="translate(0.000000,234.000000) scale(0.100000,-0.100000)"
fill="#000000" stroke="none">
<path d="M1415 1851 c-28 -12 -178 -157 -493 -476 -248 -252 -452 -464 -452
-470 0 -14 232 -245 247 -245 6 0 183 174 392 388 l381 387 381 -387 c209
-214 385 -388 390 -388 14 0 249 231 249 245 0 6 -204 218 -452 470 -466 472
-492 495 -568 495 -19 0 -53 -9 -75 -19z"/>
</g>
</svg>
