<?xml version="1.0" standalone="no"?>
<!DOCTYPE svg PUBLIC "-//W3C//DTD SVG 20010904//EN"
 "http://www.w3.org/TR/2001/REC-SVG-20010904/DTD/svg10.dtd">
<svg version="1.0" xmlns="http://www.w3.org/2000/svg"
 width="458.000000pt" height="392.000000pt" viewBox="0 0 458.000000 392.000000"
 preserveAspectRatio="xMidYMid meet">
<metadata>
Created by potrace 1.16, written by Peter Selinger 2001-2019
</metadata>
<g transform="translate(0.000000,392.000000) scale(0.100000,-0.100000)"
fill="#000000" stroke="none">
<path d="M1418 2593 c-444 -445 -642 -649 -653 -675 -19 -47 -19 -89 0 -136
11 -26 209 -230 653 -674 350 -351 641 -638 646 -638 5 0 58 50 118 110 59 61
112 110 117 110 41 0 -22 68 -457 504 l-477 476 1138 0 1137 0 0 180 0 180
-1130 0 c-621 0 -1130 3 -1130 8 0 4 211 218 469 476 l469 468 -125 124 c-69
68 -128 124 -132 124 -3 0 -293 -287 -643 -637z"/>
</g>
</svg>
