<?xml version="1.0" standalone="no"?>
<!DOCTYPE svg PUBLIC "-//W3C//DTD SVG 20010904//EN"
 "http://www.w3.org/TR/2001/REC-SVG-20010904/DTD/svg10.dtd">
<svg version="1.0" xmlns="http://www.w3.org/2000/svg"
 width="298.000000pt" height="264.000000pt" viewBox="0 0 298.000000 264.000000"
 preserveAspectRatio="xMidYMid meet">
<metadata>
Created by potrace 1.16, written by Peter Selinger 2001-2019
</metadata>
<g transform="translate(0.000000,264.000000) scale(0.100000,-0.100000)"
fill="#000000" stroke="none">
<path d="M1218 1893 c-314 -315 -462 -470 -473 -495 -20 -51 -19 -104 5 -152
13 -27 178 -199 474 -496 l455 -454 113 109 c62 61 119 118 127 128 12 18 -17
50 -368 401 -209 210 -381 386 -381 391 0 6 172 182 382 392 l382 382 -74 78
c-154 159 -168 173 -177 173 -4 0 -214 -206 -465 -457z"/>
</g>
</svg>
