<?xml version="1.0" standalone="no"?>
<!DOCTYPE svg PUBLIC "-//W3C//DTD SVG 20010904//EN"
 "http://www.w3.org/TR/2001/REC-SVG-20010904/DTD/svg10.dtd">
<svg version="1.0" xmlns="http://www.w3.org/2000/svg"
 width="346.000000pt" height="300.000000pt" viewBox="0 0 346.000000 300.000000"
 preserveAspectRatio="xMidYMid meet">
<metadata>
Created by potrace 1.16, written by Peter Selinger 2001-2019
</metadata>
<g transform="translate(0.000000,300.000000) scale(0.100000,-0.100000)"
fill="#000000" stroke="none">
<path d="M430 2380 l0 -180 1260 0 1260 0 0 180 0 180 -1260 0 -1260 0 0 -180z"/>
<path d="M430 1480 l0 -180 1260 0 1260 0 0 180 0 180 -1260 0 -1260 0 0 -180z"/>
<path d="M430 580 l0 -180 1260 0 1260 0 0 180 0 180 -1260 0 -1260 0 0 -180z"/>
</g>
</svg>
