<?xml version="1.0" standalone="no"?>
<!DOCTYPE svg PUBLIC "-//W3C//DTD SVG 20010904//EN"
 "http://www.w3.org/TR/2001/REC-SVG-20010904/DTD/svg10.dtd">
<svg version="1.0" xmlns="http://www.w3.org/2000/svg"
 width="530.000000pt" height="440.000000pt" viewBox="0 0 530.000000 440.000000"
 preserveAspectRatio="xMidYMid meet">
<metadata>
Created by potrace 1.16, written by Peter Selinger 2001-2019
</metadata>
<g transform="translate(0.000000,440.000000) scale(0.100000,-0.100000)"
fill="#000000" stroke="none">
<path d="M3665 4179 c-26 -12 -149 -128 -332 -312 -243 -244 -293 -299 -302
-332 -7 -25 -11 -165 -11 -371 l0 -332 -346 -338 c-238 -233 -353 -352 -365
-379 -69 -150 83 -304 235 -237 35 16 127 102 389 361 l344 341 329 0 c207 0
344 4 369 11 33 9 90 60 337 307 321 319 336 339 325 423 -7 51 -47 113 -89
136 -29 16 -68 18 -330 21 l-297 3 -3 298 -3 298 -28 42 c-50 75 -141 100
-222 60z m-84 -964 c44 -80 89 -95 286 -95 l158 0 -90 -90 -90 -90 -232 0
-233 0 0 232 0 233 88 88 87 88 5 -168 c4 -130 9 -175 21 -198z"/>
<path d="M2305 3650 c-621 -66 -1157 -490 -1362 -1075 -74 -213 -105 -451 -85
-662 39 -408 198 -750 479 -1024 201 -197 422 -327 684 -402 484 -140 1022
-45 1419 251 328 245 548 595 631 1007 25 119 32 364 16 498 l-9 67 -185 0
-185 0 6 -27 c28 -130 31 -261 11 -417 -84 -641 -665 -1120 -1315 -1083 -327
19 -613 149 -836 380 -183 188 -281 374 -340 637 -27 119 -25 379 4 495 32
129 60 209 102 296 230 472 732 754 1248 700 64 -6 127 -14 140 -17 l22 -6 0
184 0 185 -100 12 c-110 12 -235 12 -345 1z"/>
<path d="M2345 2930 c-363 -55 -645 -307 -747 -667 -29 -102 -31 -321 -5 -426
97 -388 430 -670 817 -694 330 -19 635 129 817 397 82 122 138 288 150 445 5
77 -10 245 -26 272 -9 17 -351 -325 -351 -353 0 -29 -57 -143 -101 -201 -41
-54 -138 -130 -201 -156 -20 -8 -71 -23 -114 -32 -181 -41 -367 14 -496 148
-170 174 -204 414 -90 631 64 122 168 208 314 261 49 17 78 41 227 187 128
126 166 168 153 172 -71 22 -254 30 -347 16z"/>
</g>
</svg>
