<?xml version="1.0" standalone="no"?>
<!DOCTYPE svg PUBLIC "-//W3C//DTD SVG 20010904//EN"
 "http://www.w3.org/TR/2001/REC-SVG-20010904/DTD/svg10.dtd">
<svg version="1.0" xmlns="http://www.w3.org/2000/svg"
 width="362.000000pt" height="454.000000pt" viewBox="0 0 362.000000 454.000000"
 preserveAspectRatio="xMidYMid meet">
<metadata>
Created by potrace 1.16, written by Peter Selinger 2001-2019
</metadata>
<g transform="translate(0.000000,454.000000) scale(0.100000,-0.100000)"
fill="#000000" stroke="none">
<path d="M794 4190 c-176 -46 -306 -166 -378 -350 l-21 -55 -3 -1525 c-2
-1480 -2 -1526 17 -1601 46 -183 176 -321 361 -385 53 -18 99 -19 1060 -19
961 0 1007 1 1060 19 185 64 315 202 361 385 19 75 19 121 17 1601 l-3 1525
-21 55 c-35 89 -75 151 -134 210 -69 70 -150 116 -248 141 -72 18 -118 19
-1036 18 -906 0 -965 -1 -1032 -19z m2011 -359 c48 -22 69 -44 90 -94 13 -32
15 -206 15 -1507 0 -1301 -2 -1475 -15 -1507 -21 -50 -42 -72 -90 -94 -38 -18
-89 -19 -975 -19 -886 0 -937 1 -975 19 -48 22 -69 44 -90 94 -13 32 -15 206
-15 1507 0 1301 2 1475 15 1507 21 50 42 72 90 94 38 18 89 19 975 19 886 0
937 -1 975 -19z"/>
<path d="M1740 1496 c-107 -30 -190 -100 -234 -196 -83 -182 -5 -392 179 -477
86 -40 204 -40 290 0 184 85 262 295 179 477 -71 156 -251 241 -414 196z"/>
</g>
</svg>
