<?xml version="1.0" standalone="no"?>
<!DOCTYPE svg PUBLIC "-//W3C//DTD SVG 20010904//EN"
 "http://www.w3.org/TR/2001/REC-SVG-20010904/DTD/svg10.dtd">
<svg version="1.0" xmlns="http://www.w3.org/2000/svg"
 width="488.000000pt" height="384.000000pt" viewBox="0 0 488.000000 384.000000"
 preserveAspectRatio="xMidYMid meet">
<metadata>
Created by potrace 1.16, written by Peter Selinger 2001-2019
</metadata>
<g transform="translate(0.000000,384.000000) scale(0.100000,-0.100000)"
fill="#000000" stroke="none">
<path d="M1013 3327 c-286 -114 -493 -203 -507 -217 -35 -32 -60 -101 -54
-147 6 -44 378 -886 405 -916 24 -26 91 -57 126 -57 22 0 267 74 355 107 9 4
12 -149 12 -746 0 -654 2 -756 15 -788 21 -50 42 -72 90 -94 38 -18 89 -19
980 -19 891 0 942 1 980 19 48 22 69 44 90 94 13 32 15 134 15 787 0 412 1
750 3 750 1 0 77 -25 167 -55 90 -30 178 -55 195 -55 37 0 104 30 128 57 27
30 399 872 405 916 6 48 -21 119 -58 151 -16 13 -244 110 -507 215 l-479 191
-215 0 c-207 0 -218 -1 -260 -23 -55 -29 -86 -74 -94 -135 -19 -157 -44 -222
-109 -285 -55 -53 -102 -75 -190 -89 -240 -37 -435 113 -436 335 0 85 -36 147
-105 178 -35 16 -68 19 -255 19 l-215 0 -482 -193z m733 -219 c104 -319 380
-502 729 -484 166 8 267 42 406 137 101 68 198 207 244 347 l17 52 82 0 c81 0
82 0 421 -136 187 -75 343 -139 346 -142 6 -6 -193 -467 -207 -481 -2 -2 -93
24 -202 59 -231 76 -275 80 -341 37 -27 -18 -50 -44 -62 -70 -18 -40 -19 -77
-19 -829 l0 -788 -725 0 -725 0 0 788 c0 752 -1 789 -19 829 -24 51 -85 94
-143 100 -34 3 -86 -10 -250 -66 -114 -38 -210 -66 -212 -63 -8 14 -207 466
-209 475 -1 6 151 72 338 148 l340 137 87 1 86 1 18 -52z"/>
</g>
</svg>
