<?xml version="1.0" standalone="no"?>
<!DOCTYPE svg PUBLIC "-//W3C//DTD SVG 20010904//EN"
 "http://www.w3.org/TR/2001/REC-SVG-20010904/DTD/svg10.dtd">
<svg version="1.0" xmlns="http://www.w3.org/2000/svg"
 width="454.000000pt" height="340.000000pt" viewBox="0 0 454.000000 340.000000"
 preserveAspectRatio="xMidYMid meet">
<metadata>
Created by potrace 1.16, written by Peter Selinger 2001-2019
</metadata>
<g transform="translate(0.000000,340.000000) scale(0.100000,-0.100000)"
fill="#000000" stroke="none">
<path d="M670 3173 c-14 -2 -47 -11 -75 -20 -175 -56 -309 -200 -356 -381 -18
-72 -19 -119 -19 -1037 0 -918 1 -965 19 -1037 46 -180 168 -312 351 -381 49
-18 82 -21 310 -24 250 -4 256 -4 300 19 50 26 87 74 95 124 3 19 7 49 10 68
12 76 95 146 175 146 78 0 163 -70 174 -144 3 -17 8 -47 11 -67 8 -53 44 -101
95 -126 l44 -23 947 0 c902 0 949 1 1021 19 183 47 320 176 384 361 18 53 19
99 19 1065 0 966 -1 1012 -19 1065 -64 185 -201 314 -384 361 -72 18 -119 19
-1021 19 l-947 0 -44 -22 c-50 -25 -87 -74 -94 -122 -3 -17 -8 -47 -11 -67
-12 -79 -94 -149 -175 -149 -80 0 -163 70 -175 146 -3 19 -7 49 -10 68 -8 50
-45 98 -95 124 -42 21 -54 22 -275 21 -126 -1 -241 -4 -255 -6z m336 -424 c78
-148 231 -256 397 -280 224 -33 446 81 552 282 l36 69 840 0 c733 0 844 -2
876 -15 50 -21 72 -42 94 -90 18 -38 19 -89 19 -980 0 -891 -1 -942 -19 -980
-22 -48 -44 -69 -94 -90 -32 -13 -143 -15 -877 -15 l-840 0 -29 58 c-64 127
-178 227 -311 274 -92 32 -248 32 -340 0 -131 -46 -241 -141 -305 -263 l-36
-69 -120 0 c-162 0 -212 21 -250 105 -18 38 -19 89 -19 978 0 821 2 942 15
974 38 90 87 112 252 113 l122 0 37 -71z"/>
<path d="M2399 2631 c-109 -34 -199 -151 -199 -261 0 -92 70 -200 159 -245
120 -60 286 0 354 130 29 53 30 173 3 225 -62 118 -203 185 -317 151z"/>
<path d="M2855 2115 c-149 -239 -350 -563 -448 -721 -98 -158 -174 -290 -170
-294 23 -20 276 -173 288 -174 12 -1 440 668 487 760 8 16 106 175 217 353
111 178 199 327 194 331 -14 12 -268 169 -283 175 -11 4 -88 -113 -285 -430z"/>
<path d="M1300 2100 l0 -180 180 0 180 0 0 180 0 180 -180 0 -180 0 0 -180z"/>
<path d="M1300 1370 l0 -180 180 0 180 0 0 180 0 180 -180 0 -180 0 0 -180z"/>
<path d="M3119 1361 c-109 -34 -199 -151 -199 -261 0 -92 70 -200 159 -245
120 -60 286 0 354 130 29 53 30 173 3 225 -62 118 -203 185 -317 151z"/>
</g>
</svg>
