<?xml version="1.0" standalone="no"?>
<!DOCTYPE svg PUBLIC "-//W3C//DTD SVG 20010904//EN"
 "http://www.w3.org/TR/2001/REC-SVG-20010904/DTD/svg10.dtd">
<svg version="1.0" xmlns="http://www.w3.org/2000/svg"
 width="418.000000pt" height="392.000000pt" viewBox="0 0 418.000000 392.000000"
 preserveAspectRatio="xMidYMid meet">
<metadata>
Created by potrace 1.16, written by Peter Selinger 2001-2019
</metadata>
<g transform="translate(0.000000,392.000000) scale(0.100000,-0.100000)"
fill="#000000" stroke="none">
<path d="M930 3695 c-285 -57 -511 -285 -566 -573 -21 -109 -21 -1955 0 -2064
56 -292 282 -518 574 -574 108 -20 1236 -20 1344 0 240 46 442 211 534 436 43
106 54 192 54 421 l0 209 -180 0 -180 0 0 -197 c0 -207 -8 -261 -47 -338 -31
-60 -90 -114 -163 -149 l-65 -31 -590 -3 c-429 -3 -605 0 -645 8 -119 26 -202
91 -254 200 l-31 65 0 985 0 985 31 65 c52 109 135 174 254 200 40 8 216 11
645 8 l590 -3 65 -31 c73 -35 132 -89 163 -149 39 -77 47 -131 47 -337 l0
-198 180 0 180 0 0 209 c0 139 -5 234 -14 283 -56 292 -282 518 -574 574 -102
19 -1253 19 -1352 -1z"/>
<path d="M1468 2563 c-375 -375 -398 -404 -398 -475 1 -70 32 -107 404 -478
l366 -365 127 128 128 127 -205 205 -205 205 1133 0 1132 0 0 180 0 180 -1132
0 -1133 0 205 205 205 205 -125 125 c-69 69 -127 125 -130 125 -3 0 -170 -165
-372 -367z"/>
</g>
</svg>
