<?xml version="1.0" standalone="no"?>
<!DOCTYPE svg PUBLIC "-//W3C//DTD SVG 20010904//EN"
 "http://www.w3.org/TR/2001/REC-SVG-20010904/DTD/svg10.dtd">
<svg version="1.0" xmlns="http://www.w3.org/2000/svg"
 width="426.000000pt" height="456.000000pt" viewBox="0 0 426.000000 456.000000"
 preserveAspectRatio="xMidYMid meet">
<metadata>
Created by potrace 1.16, written by Peter Selinger 2001-2019
</metadata>
<g transform="translate(0.000000,456.000000) scale(0.100000,-0.100000)"
fill="#000000" stroke="none">
<path d="M1490 4050 l0 -265 270 -270 270 -270 0 265 0 265 -270 270 -270 270
0 -265z"/>
<path d="M2478 4043 l-268 -268 0 -265 0 -265 270 270 270 270 -2 263 -3 262
-267 -267z"/>
<path d="M323 3291 c16 -328 93 -642 222 -900 113 -225 234 -389 460 -621 274
-282 357 -372 415 -450 116 -158 167 -302 157 -451 -11 -172 -107 -275 -295
-315 -37 -7 -86 -14 -110 -14 l-42 0 45 -90 45 -90 405 0 405 0 0 718 0 717
-270 270 -270 270 0 275 0 275 270 -270 270 -270 0 265 0 265 -273 273 -272
272 -584 0 -584 0 6 -129z"/>
<path d="M2482 3147 l-272 -272 0 -265 0 -265 270 270 270 270 0 -275 0 -275
-270 -270 -270 -270 0 -717 0 -718 405 0 405 0 44 88 44 88 -76 12 c-153 24
-255 100 -324 240 -43 85 -43 86 -43 196 0 139 26 226 100 336 76 114 130 173
364 393 409 386 583 640 696 1019 51 168 95 454 95 621 l0 67 -583 0 -582 0
-273 -273z"/>
</g>
</svg>
