<?xml version="1.0" standalone="no"?>
<!DOCTYPE svg PUBLIC "-//W3C//DTD SVG 20010904//EN"
 "http://www.w3.org/TR/2001/REC-SVG-20010904/DTD/svg10.dtd">
<svg version="1.0" xmlns="http://www.w3.org/2000/svg"
 width="532.000000pt" height="398.000000pt" viewBox="0 0 532.000000 398.000000"
 preserveAspectRatio="xMidYMid meet">
<metadata>
Created by potrace 1.16, written by Peter Selinger 2001-2019
</metadata>
<g transform="translate(0.000000,398.000000) scale(0.100000,-0.100000)"
fill="#000000" stroke="none">
<path d="M1420 3369 c-51 -30 -778 -758 -801 -801 -18 -36 -19 -64 -19 -623 0
-559 1 -587 19 -623 24 -46 764 -784 808 -806 29 -14 173 -16 1515 -16 1418 0
1485 1 1523 19 48 22 69 44 90 94 13 32 15 189 15 1334 0 1238 -1 1300 -19
1338 -22 48 -44 69 -94 90 -32 13 -207 15 -1519 15 l-1483 0 -35 -21z m2790
-1424 l0 -1085 -1317 0 -1318 0 -307 307 -308 308 0 470 0 470 307 307 308
308 1317 0 1318 0 0 -1085z"/>
<path d="M3270 2365 c-135 -217 -321 -517 -413 -667 -93 -150 -174 -277 -180
-283 -19 -16 -69 -96 -64 -102 3 -2 38 -24 79 -47 40 -23 108 -64 151 -91 45
-28 81 -44 86 -39 12 14 521 831 521 837 0 3 84 139 186 302 102 164 182 301
177 305 -14 12 -268 169 -283 175 -11 4 -82 -102 -260 -390z"/>
<path d="M2789 2661 c-81 -25 -162 -96 -188 -167 -40 -107 -15 -214 67 -282
64 -53 105 -73 167 -79 103 -11 216 53 268 152 29 53 30 173 3 225 -62 118
-203 185 -317 151z"/>
<path d="M1590 2483 c-150 -25 -304 -133 -379 -267 -196 -350 35 -784 434
-813 245 -18 468 135 551 377 26 77 26 253 0 330 -63 184 -201 314 -384 361
-69 17 -160 22 -222 12z m157 -368 c50 -21 72 -42 94 -90 63 -136 -51 -288
-195 -261 -110 21 -175 147 -131 253 21 50 42 72 90 94 49 23 94 24 142 4z"/>
<path d="M3509 1751 c-109 -34 -199 -151 -199 -261 0 -92 70 -200 159 -245
120 -60 286 0 354 130 29 53 30 173 3 225 -62 118 -203 185 -317 151z"/>
</g>
</svg>
