<?xml version="1.0" standalone="no"?>
<!DOCTYPE svg PUBLIC "-//W3C//DTD SVG 20010904//EN"
 "http://www.w3.org/TR/2001/REC-SVG-20010904/DTD/svg10.dtd">
<svg version="1.0" xmlns="http://www.w3.org/2000/svg"
 width="372.000000pt" height="362.000000pt" viewBox="0 0 372.000000 362.000000"
 preserveAspectRatio="xMidYMid meet">
<metadata>
Created by potrace 1.16, written by Peter Selinger 2001-2019
</metadata>
<g transform="translate(0.000000,362.000000) scale(0.100000,-0.100000)"
fill="#000000" stroke="none">
<path d="M1360 3449 c-110 -13 -232 -46 -344 -91 -117 -46 -160 -70 -281 -154
-277 -192 -476 -510 -546 -874 -18 -91 -15 -354 4 -465 31 -181 111 -375 220
-534 66 -97 229 -260 333 -333 158 -112 371 -199 554 -229 132 -22 363 -17
490 10 177 38 337 105 482 203 31 21 61 38 67 38 5 0 184 -171 399 -379 l389
-379 129 129 c127 128 128 129 109 148 -226 215 -761 736 -763 742 -2 4 14 34
36 66 228 340 290 758 171 1157 -142 475 -559 846 -1048 931 -110 20 -305 27
-401 14z m321 -364 c259 -48 471 -176 625 -377 163 -211 236 -505 188 -759
-42 -227 -113 -373 -254 -523 -153 -162 -317 -252 -543 -297 -124 -24 -230
-24 -354 0 -226 45 -390 135 -543 297 -141 150 -212 296 -254 523 -76 402 135
831 507 1031 192 104 424 142 628 105z"/>
</g>
</svg>
