<?xml version="1.0" standalone="no"?>
<!DOCTYPE svg PUBLIC "-//W3C//DTD SVG 20010904//EN"
 "http://www.w3.org/TR/2001/REC-SVG-20010904/DTD/svg10.dtd">
<svg version="1.0" xmlns="http://www.w3.org/2000/svg"
 width="519.000000pt" height="481.000000pt" viewBox="0 0 519.000000 481.000000"
 preserveAspectRatio="xMidYMid meet">
<metadata>
Created by potrace 1.16, written by Peter Selinger 2001-2019
</metadata>
<g transform="translate(0.000000,481.000000) scale(0.100000,-0.100000)"
fill="#000000" stroke="none">
<path d="M2448 4406 c-382 -117 -664 -423 -755 -819 -13 -55 -18 -145 -22
-372 l-6 -300 -240 -161 c-131 -89 -247 -172 -257 -185 -28 -39 -388 -1140
-388 -1188 0 -82 50 -148 130 -172 36 -11 83 -3 497 79 l458 92 705 0 705 0
454 -91 c302 -60 465 -89 486 -85 44 9 94 44 122 85 44 65 39 86 -163 695
-102 309 -192 571 -200 584 -8 12 -124 95 -258 185 l-244 162 -5 305 c-5 325
-10 363 -63 510 -95 266 -300 495 -546 609 -193 91 -285 106 -410 67z m219
-372 c207 -92 352 -259 420 -483 15 -50 17 -144 20 -933 l4 -878 -541 0 -540
0 0 834 c0 904 2 940 55 1067 75 177 218 319 403 399 75 33 92 32 179 -6z
m-1004 -2324 c-7 -6 -414 -90 -435 -90 -3 0 47 161 113 358 90 269 124 361
141 375 13 10 37 29 54 43 18 14 54 40 80 58 l49 33 3 -385 c1 -212 -1 -389
-5 -392z m1874 733 c31 -21 66 -46 77 -55 12 -10 31 -26 44 -35 17 -14 51
-105 141 -375 70 -209 115 -358 108 -358 -7 1 -106 20 -222 43 l-210 43 -5
239 c-5 239 -2 535 6 535 2 0 30 -17 61 -37z"/>
<path d="M2473 3345 c-216 -58 -322 -293 -226 -497 52 -109 139 -174 263 -198
66 -13 152 0 223 33 206 96 261 390 104 558 -94 101 -231 139 -364 104z"/>
<path d="M1850 935 l0 -265 180 0 180 0 0 265 0 265 -180 0 -180 0 0 -265z"/>
<path d="M2390 845 l0 -355 180 0 180 0 0 355 0 355 -180 0 -180 0 0 -355z"/>
<path d="M2930 935 l0 -265 180 0 180 0 0 265 0 265 -180 0 -180 0 0 -265z"/>
</g>
</svg>
