<?xml version="1.0" standalone="no"?>
<!DOCTYPE svg PUBLIC "-//W3C//DTD SVG 20010904//EN"
 "http://www.w3.org/TR/2001/REC-SVG-20010904/DTD/svg10.dtd">
<svg version="1.0" xmlns="http://www.w3.org/2000/svg"
 width="426.000000pt" height="408.000000pt" viewBox="0 0 426.000000 408.000000"
 preserveAspectRatio="xMidYMid meet">
<metadata>
Created by potrace 1.16, written by Peter Selinger 2001-2019
</metadata>
<g transform="translate(0.000000,408.000000) scale(0.100000,-0.100000)"
fill="#000000" stroke="none">
<path d="M1608 3920 c-182 -33 -304 -99 -500 -271 -42 -37 -144 -113 -225
-168 -288 -194 -371 -313 -458 -651 -24 -97 -63 -220 -85 -275 -81 -198 -95
-262 -94 -430 0 -173 7 -204 89 -420 30 -77 70 -205 90 -285 86 -342 172 -463
475 -665 69 -46 170 -122 225 -169 182 -158 289 -216 465 -252 72 -14 112 -16
255 -9 208 10 175 10 385 0 148 -7 188 -5 260 9 170 35 290 99 450 240 47 42
148 118 225 170 159 107 226 162 291 238 97 113 143 216 203 453 22 88 61 210
85 272 76 186 91 257 91 418 0 161 -15 232 -91 418 -24 62 -65 191 -89 287
-87 339 -170 457 -458 651 -81 55 -183 131 -225 168 -169 148 -273 211 -418
253 -72 21 -94 23 -264 19 -292 -6 -296 -6 -470 1 -91 4 -186 3 -212 -2z m427
-364 c39 0 147 3 240 5 155 4 174 2 221 -17 70 -29 144 -80 244 -170 47 -42
141 -114 210 -159 161 -107 196 -135 244 -198 55 -73 71 -115 117 -298 22 -88
62 -217 90 -286 105 -263 105 -351 0 -616 -27 -71 -67 -194 -87 -275 -74 -296
-102 -334 -374 -514 -63 -42 -153 -111 -200 -152 -116 -105 -190 -152 -272
-177 -65 -20 -83 -21 -242 -14 -206 10 -166 10 -372 0 -159 -7 -177 -6 -242
14 -82 25 -156 72 -272 176 -47 42 -148 118 -225 170 -156 103 -196 137 -245
209 -44 65 -62 116 -105 292 -20 81 -59 204 -87 273 -104 261 -104 348 1 615
28 72 65 186 82 255 44 185 65 242 113 311 51 73 86 102 256 215 69 45 159
113 200 150 206 186 264 209 495 197 77 -4 172 -6 210 -6z"/>
<path d="M1504 3012 c-228 -81 -247 -380 -30 -495 32 -17 58 -22 116 -22 58 0
84 5 116 22 53 28 99 74 127 127 31 58 31 174 0 232 -65 122 -205 181 -329
136z"/>
<path d="M2086 2491 c-190 -253 -346 -463 -346 -466 0 -3 -86 -120 -191 -260
-106 -141 -190 -258 -187 -260 3 -3 67 -52 143 -109 l139 -104 273 364 c150
200 273 366 273 369 0 3 120 165 267 361 150 200 262 358 257 363 -26 24 -256
192 -268 197 -10 4 -121 -136 -360 -455z"/>
<path d="M2404 1742 c-228 -81 -247 -380 -30 -495 58 -31 174 -31 232 0 53 28
99 74 127 127 17 32 22 58 22 116 0 58 -5 84 -22 116 -65 122 -205 181 -329
136z"/>
</g>
</svg>
