<?xml version="1.0" standalone="no"?>
<!DOCTYPE svg PUBLIC "-//W3C//DTD SVG 20010904//EN"
 "http://www.w3.org/TR/2001/REC-SVG-20010904/DTD/svg10.dtd">
<svg version="1.0" xmlns="http://www.w3.org/2000/svg"
 width="422.000000pt" height="386.000000pt" viewBox="0 0 422.000000 386.000000"
 preserveAspectRatio="xMidYMid meet">
<metadata>
Created by potrace 1.16, written by Peter Selinger 2001-2019
</metadata>
<g transform="translate(0.000000,386.000000) scale(0.100000,-0.100000)"
fill="#000000" stroke="none">
<path d="M1734 3640 c-11 -4 -32 -22 -46 -38 -24 -29 -25 -37 -31 -194 -6
-195 -33 -311 -104 -456 -105 -216 -259 -370 -475 -475 -143 -70 -260 -97
-462 -105 l-169 -8 -33 -38 -34 -39 0 -251 c0 -274 2 -285 57 -322 28 -19 50
-22 190 -27 173 -6 239 -19 378 -72 242 -93 431 -268 548 -507 72 -146 98
-261 104 -458 l6 -165 38 -38 38 -38 266 3 267 3 32 36 33 36 6 164 c4 133 10
183 31 263 80 301 271 533 548 669 143 70 260 97 462 105 l169 8 33 38 34 39
0 251 c0 274 -2 285 -57 322 -28 19 -50 22 -190 27 -173 6 -239 19 -378 72
-242 93 -431 268 -548 507 -71 145 -98 261 -104 453 -6 175 -11 192 -66 225
-30 18 -51 20 -277 19 -135 0 -254 -4 -266 -9z m276 -566 c0 -36 74 -234 121
-325 130 -248 364 -477 617 -603 81 -41 267 -106 301 -106 41 0 20 -17 -36
-30 -87 -19 -205 -64 -301 -115 -323 -172 -588 -498 -684 -843 -21 -76 -38
-105 -38 -66 0 30 -68 221 -106 296 -91 183 -253 375 -424 504 -107 81 -270
164 -403 205 -56 17 -109 33 -117 36 -8 3 24 16 73 29 109 29 210 71 310 128
306 175 557 493 649 824 21 76 38 105 38 66z"/>
</g>
</svg>
