<?xml version="1.0" standalone="no"?>
<!DOCTYPE svg PUBLIC "-//W3C//DTD SVG 20010904//EN"
 "http://www.w3.org/TR/2001/REC-SVG-20010904/DTD/svg10.dtd">
<svg version="1.0" xmlns="http://www.w3.org/2000/svg"
 width="478.000000pt" height="458.000000pt" viewBox="0 0 478.000000 458.000000"
 preserveAspectRatio="xMidYMid meet">
<metadata>
Created by potrace 1.16, written by Peter Selinger 2001-2019
</metadata>
<g transform="translate(0.000000,458.000000) scale(0.100000,-0.100000)"
fill="#000000" stroke="none">
<path d="M2447 4159 c-90 -21 -189 -96 -229 -174 -38 -73 -48 -133 -48 -296
l0 -157 -50 -32 c-83 -53 -174 -161 -228 -269 -27 -53 -51 -105 -54 -117 -5
-18 -15 -22 -89 -27 -216 -16 -410 -103 -570 -258 -152 -148 -243 -346 -265
-576 l-7 -73 -106 0 c-82 0 -115 -5 -148 -19 -47 -22 -91 -80 -99 -132 -3 -19
38 -330 90 -692 106 -737 100 -713 188 -756 l44 -21 1475 0 c1426 0 1475 1
1516 19 25 12 52 35 68 60 25 37 33 83 121 698 52 362 93 673 90 692 -8 52
-52 110 -99 132 -33 14 -66 19 -149 19 l-108 0 0 379 c0 406 -7 496 -46 599
-50 133 -160 275 -265 342 l-47 31 -4 182 c-3 175 -4 184 -31 242 -48 104
-129 171 -242 201 -58 16 -644 18 -708 3z m623 -439 l0 -90 -270 0 -270 0 0
90 0 90 270 0 270 0 0 -90z m93 -465 c94 -24 179 -90 219 -169 45 -87 48 -121
48 -523 l0 -383 -359 0 -359 0 -7 78 c-18 206 -101 395 -241 551 -48 53 -168
143 -242 180 l-42 21 26 53 c47 94 126 160 229 193 62 20 652 19 728 -1z
m-1228 -540 c154 -40 282 -139 349 -274 36 -71 65 -176 66 -233 l0 -28 -540 0
-540 0 0 28 c1 116 67 268 155 358 78 78 196 142 295 157 60 10 160 6 215 -8z
m1822 -927 c-3 -18 -31 -221 -63 -450 l-59 -418 -1285 0 -1286 0 -57 413 c-32
226 -61 429 -64 450 l-6 37 1413 0 1413 0 -6 -32z"/>
<path d="M1810 1460 l0 -180 540 0 540 0 0 180 0 180 -540 0 -540 0 0 -180z"/>
</g>
</svg>
