<?xml version="1.0" standalone="no"?>
<!DOCTYPE svg PUBLIC "-//W3C//DTD SVG 20010904//EN"
 "http://www.w3.org/TR/2001/REC-SVG-20010904/DTD/svg10.dtd">
<svg version="1.0" xmlns="http://www.w3.org/2000/svg"
 width="418.000000pt" height="366.000000pt" viewBox="0 0 418.000000 366.000000"
 preserveAspectRatio="xMidYMid meet">
<metadata>
Created by potrace 1.16, written by Peter Selinger 2001-2019
</metadata>
<g transform="translate(0.000000,366.000000) scale(0.100000,-0.100000)"
fill="#000000" stroke="none">
<path d="M2815 2911 c-396 -153 -1091 -421 -1545 -595 -454 -175 -833 -325
-843 -335 -10 -9 -20 -33 -23 -52 -11 -66 4 -74 415 -228 205 -77 377 -143
381 -148 4 -4 69 -206 144 -448 75 -242 142 -453 148 -469 17 -42 47 -66 85
-66 34 0 38 3 334 246 74 61 145 116 156 123 28 14 98 14 126 0 12 -7 170
-120 352 -252 440 -321 434 -317 466 -317 15 0 40 10 55 23 26 22 39 80 305
1363 154 736 279 1347 279 1357 0 29 -54 77 -87 76 -15 0 -352 -125 -748 -278z
m132 -326 c1 -15 -111 -125 -415 -407 -229 -213 -436 -402 -458 -420 -23 -18
-116 -103 -208 -188 -116 -108 -172 -167 -186 -198 -13 -27 -30 -107 -45 -219
-15 -106 -30 -180 -37 -185 -7 -4 -22 -7 -32 -6 -16 3 -33 51 -103 293 -90
312 -96 359 -56 413 17 23 584 382 698 442 22 12 213 128 425 260 212 131 392
238 400 237 8 -1 16 -11 17 -22z"/>
</g>
</svg>
