<?xml version="1.0" standalone="no"?>
<!DOCTYPE svg PUBLIC "-//W3C//DTD SVG 20010904//EN"
 "http://www.w3.org/TR/2001/REC-SVG-20010904/DTD/svg10.dtd">
<svg version="1.0" xmlns="http://www.w3.org/2000/svg"
 width="502.000000pt" height="440.000000pt" viewBox="0 0 502.000000 440.000000"
 preserveAspectRatio="xMidYMid meet">
<metadata>
Created by potrace 1.16, written by Peter Selinger 2001-2019
</metadata>
<g transform="translate(0.000000,440.000000) scale(0.100000,-0.100000)"
fill="#000000" stroke="none">
<path d="M1550 3984 l-115 -116 114 -109 c62 -60 118 -109 124 -109 6 0 60 49
121 110 l111 109 -115 116 c-63 63 -117 115 -120 115 -3 0 -57 -52 -120 -116z"/>
<path d="M2058 3393 l-3 -398 -30 -60 c-26 -52 -37 -64 -85 -88 -104 -52 -421
-61 -567 -16 -217 67 -261 311 -120 658 l44 110 -166 74 -166 75 -32 -67 c-81
-169 -133 -382 -133 -547 0 -107 11 -171 46 -265 71 -190 229 -327 450 -391
73 -21 98 -23 334 -23 234 0 262 2 338 23 182 50 318 150 385 284 70 138 71
147 75 611 l3 417 -185 0 -185 0 -3 -397z"/>
<path d="M4006 2451 l-109 -110 88 -93 c49 -51 100 -101 113 -112 l24 -19 108
114 c59 63 107 114 106 114 -1 0 -51 48 -111 108 l-110 107 -109 -109z"/>
<path d="M3541 2446 l-104 -104 104 -111 c57 -61 108 -111 112 -111 9 0 210
205 215 219 3 9 -203 211 -215 211 -5 0 -55 -47 -112 -104z"/>
<path d="M870 1828 c0 -622 3 -658 56 -766 77 -157 275 -256 479 -239 86 8
166 31 214 63 l36 23 95 -48 c241 -123 443 -151 582 -80 57 29 141 110 164
159 10 22 22 40 26 40 13 0 40 104 47 182 4 44 3 113 -1 153 -7 69 -33 164
-47 175 -3 3 -19 32 -36 64 -92 181 -290 278 -501 247 -109 -16 -195 -60 -274
-140 -83 -83 -112 -133 -175 -300 -61 -164 -73 -176 -177 -176 -116 0 -108
-43 -108 555 l0 507 -184 77 c-102 42 -187 76 -190 76 -3 0 -6 -258 -6 -572z
m1272 -414 c52 -50 72 -100 72 -184 1 -92 -16 -134 -58 -138 -40 -5 -181 42
-240 79 -45 28 -48 33 -42 62 8 40 52 136 74 161 57 64 138 72 194 20z"/>
<path d="M3115 2008 c-174 -33 -317 -179 -371 -378 -25 -93 -25 -267 0 -340
28 -82 78 -153 138 -198 116 -86 202 -112 386 -112 120 0 122 0 122 -22 0
-110 -217 -208 -462 -208 l-78 0 0 -180 0 -180 64 0 c36 0 116 7 178 15 390
51 602 210 665 497 l16 78 152 0 c163 0 260 17 347 61 105 53 183 145 218 258
18 56 20 92 20 337 0 151 -3 274 -7 274 -5 0 -88 -23 -185 -52 l-178 -52 0
-193 c0 -122 -4 -201 -11 -217 -21 -45 -70 -59 -220 -64 l-137 -4 -4 128 c-6
151 -27 228 -86 320 -124 191 -333 277 -567 232z m201 -368 c53 -33 78 -97 82
-214 l4 -98 -113 4 c-135 4 -178 21 -204 75 -33 70 2 190 67 232 44 28 119 28
164 1z"/>
</g>
</svg>
