<?xml version="1.0" standalone="no"?>
<!DOCTYPE svg PUBLIC "-//W3C//DTD SVG 20010904//EN"
 "http://www.w3.org/TR/2001/REC-SVG-20010904/DTD/svg10.dtd">
<svg version="1.0" xmlns="http://www.w3.org/2000/svg"
 width="456.000000pt" height="444.000000pt" viewBox="0 0 456.000000 444.000000"
 preserveAspectRatio="xMidYMid meet">
<metadata>
Created by potrace 1.16, written by Peter Selinger 2001-2019
</metadata>
<g transform="translate(0.000000,444.000000) scale(0.100000,-0.100000)"
fill="#000000" stroke="none">
<path d="M1423 4095 c-39 -7 -109 -25 -155 -40 -167 -56 -242 -98 -279 -159
-25 -40 -26 -141 -3 -176 9 -14 148 -157 308 -317 283 -285 291 -294 291 -332
0 -54 -35 -91 -84 -91 -34 0 -53 17 -316 281 -154 155 -300 294 -324 310 -72
47 -175 37 -227 -22 -60 -67 -142 -286 -165 -438 -18 -125 -7 -333 24 -452
103 -396 386 -708 757 -834 182 -62 433 -77 610 -37 l85 19 650 -648 c607
-604 655 -649 722 -683 228 -114 486 -75 659 98 173 173 212 432 98 657 -33
66 -88 124 -680 723 -505 510 -644 655 -640 671 43 190 51 377 23 525 -68 353
-270 634 -582 813 -97 55 -254 111 -372 132 -105 18 -300 18 -400 0z m442
-380 c248 -81 434 -262 524 -507 34 -91 44 -170 39 -305 -4 -110 -9 -141 -36
-222 -18 -51 -32 -107 -32 -124 0 -73 28 -104 716 -797 449 -451 679 -689 689
-713 29 -69 13 -160 -38 -216 -52 -56 -151 -76 -225 -46 -26 11 -243 222 -717
694 -374 374 -694 686 -712 695 -45 22 -96 20 -194 -9 -97 -29 -243 -48 -308
-40 -142 18 -266 53 -303 84 -7 7 -48 34 -90 62 -169 109 -300 303 -344 508
-14 69 -18 218 -8 284 l7 38 202 -201 c223 -220 267 -250 400 -273 288 -49
554 220 505 512 -22 132 -49 171 -271 396 l-201 204 34 4 c18 3 89 4 158 2
101 -3 140 -9 205 -30z"/>
</g>
</svg>
