<?xml version="1.0" standalone="no"?>
<!DOCTYPE svg PUBLIC "-//W3C//DTD SVG 20010904//EN"
 "http://www.w3.org/TR/2001/REC-SVG-20010904/DTD/svg10.dtd">
<svg version="1.0" xmlns="http://www.w3.org/2000/svg"
 width="514.000000pt" height="412.000000pt" viewBox="0 0 514.000000 412.000000"
 preserveAspectRatio="xMidYMid meet">
<metadata>
Created by potrace 1.16, written by Peter Selinger 2001-2019
</metadata>
<g transform="translate(0.000000,412.000000) scale(0.100000,-0.100000)"
fill="#000000" stroke="none">
<path d="M2140 3678 c-73 -37 -111 -114 -96 -193 4 -21 69 -129 163 -270 l156
-235 -692 -1039 -693 -1039 -176 -47 c-106 -28 -192 -57 -215 -71 -79 -52 -98
-161 -43 -245 29 -43 91 -78 137 -79 14 0 140 29 280 64 566 142 1037 200
1624 200 589 0 1049 -56 1624 -200 186 -47 274 -65 299 -61 90 15 159 104 149
194 -5 51 -46 117 -84 137 -16 7 -107 35 -205 61 l-176 47 -693 1039 -692
1039 156 235 c158 238 175 273 163 339 -15 78 -97 146 -176 146 -20 0 -56 -10
-80 -22 -39 -20 -60 -45 -160 -195 -63 -95 -119 -172 -125 -172 -5 0 -62 77
-125 172 -100 150 -121 175 -160 195 -24 12 -60 22 -80 22 -20 0 -56 -10 -80
-22z m764 -2159 c285 -427 306 -461 278 -456 -16 3 -157 12 -312 18 -226 10
-341 10 -569 0 -157 -7 -298 -15 -314 -18 -26 -5 -1 36 279 456 169 253 313
461 319 461 6 0 150 -208 319 -461z"/>
</g>
</svg>
