<?xml version="1.0" standalone="no"?>
<!DOCTYPE svg PUBLIC "-//W3C//DTD SVG 20010904//EN"
 "http://www.w3.org/TR/2001/REC-SVG-20010904/DTD/svg10.dtd">
<svg version="1.0" xmlns="http://www.w3.org/2000/svg"
 width="408.000000pt" height="370.000000pt" viewBox="0 0 408.000000 370.000000"
 preserveAspectRatio="xMidYMid meet">
<metadata>
Created by potrace 1.16, written by Peter Selinger 2001-2019
</metadata>
<g transform="translate(0.000000,370.000000) scale(0.100000,-0.100000)"
fill="#000000" stroke="none">
<path d="M2522 3171 c-136 -39 -228 -96 -320 -196 -68 -74 -106 -138 -143
-235 -21 -58 -24 -81 -24 -213 l0 -148 -65 6 c-466 45 -917 269 -1220 605 -43
48 -77 77 -82 72 -5 -5 -22 -42 -39 -83 -45 -110 -59 -252 -36 -367 27 -134
83 -239 181 -339 45 -46 75 -83 66 -83 -37 1 -150 30 -202 53 l-58 26 0 -55
c0 -92 50 -241 111 -331 16 -23 29 -45 29 -50 0 -11 83 -91 130 -125 45 -33
132 -76 195 -98 l50 -17 -59 -8 c-32 -4 -97 -5 -143 -2 -97 6 -95 12 -40 -103
23 -48 55 -89 127 -161 113 -114 194 -158 340 -186 l92 -19 -61 -43 c-76 -53
-263 -142 -357 -170 -137 -40 -233 -54 -392 -54 -83 1 -152 -1 -152 -2 0 -2
35 -24 78 -49 281 -164 592 -246 947 -249 395 -3 745 101 1065 316 130 87 363
318 463 457 104 146 224 395 274 570 60 207 74 293 80 478 l6 163 81 69 c44
37 97 85 117 106 52 57 141 174 131 174 -4 0 -35 -10 -68 -23 -56 -22 -189
-58 -263 -71 l-34 -6 39 28 c52 38 148 143 178 195 14 23 34 65 45 94 l20 51
-102 -48 c-103 -48 -226 -93 -291 -105 -31 -6 -41 -2 -97 44 -133 107 -259
151 -429 150 -69 0 -126 -7 -168 -18z"/>
</g>
</svg>
