<?xml version="1.0" standalone="no"?>
<!DOCTYPE svg PUBLIC "-//W3C//DTD SVG 20010904//EN"
 "http://www.w3.org/TR/2001/REC-SVG-20010904/DTD/svg10.dtd">
<svg version="1.0" xmlns="http://www.w3.org/2000/svg"
 width="416.000000pt" height="368.000000pt" viewBox="0 0 416.000000 368.000000"
 preserveAspectRatio="xMidYMid meet">
<metadata>
Created by potrace 1.16, written by Peter Selinger 2001-2019
</metadata>
<g transform="translate(0.000000,368.000000) scale(0.100000,-0.100000)"
fill="#000000" stroke="none">
<path d="M1927 3480 c-462 -58 -849 -282 -1124 -650 -147 -196 -252 -442 -294
-693 -18 -104 -20 -150 -16 -312 7 -270 49 -441 163 -672 l51 -104 -113 -397
c-62 -218 -111 -398 -109 -400 1 -2 187 44 413 102 l409 106 94 -45 c223 -105
395 -145 659 -152 168 -5 212 -2 317 16 678 115 1209 642 1328 1318 44 254 24
534 -57 777 -79 240 -201 439 -382 624 -243 250 -536 406 -881 468 -97 18
-365 26 -458 14z m463 -295 c377 -84 682 -305 880 -639 133 -222 187 -444 177
-723 -8 -218 -44 -369 -132 -543 -94 -187 -255 -379 -414 -493 -226 -163 -512
-257 -785 -257 -245 0 -476 60 -687 180 -39 22 -77 40 -84 40 -10 0 -384 -95
-456 -116 -13 -4 -3 41 47 218 35 123 63 229 64 236 0 7 -21 48 -47 90 -121
200 -180 402 -189 652 -7 173 7 278 62 450 108 343 353 629 684 795 124 63
228 94 420 129 60 11 388 -2 460 -19z"/>
<path d="M1475 2612 c-46 -29 -121 -117 -152 -180 -39 -80 -45 -223 -13 -338
70 -256 378 -620 678 -802 71 -43 236 -117 347 -155 79 -27 104 -31 200 -32
103 0 114 2 176 31 125 60 181 131 213 273 15 67 15 75 1 91 -9 10 -102 57
-206 105 -143 66 -195 85 -209 79 -10 -5 -55 -55 -100 -111 -49 -62 -88 -103
-99 -103 -32 0 -253 119 -328 176 -41 31 -99 84 -130 118 -70 77 -153 202
-153 231 0 12 31 58 75 109 41 48 75 96 75 105 0 36 -150 376 -176 399 -21 18
-37 22 -97 22 -52 0 -80 -5 -102 -18z"/>
</g>
</svg>
