<svg width="1364" height="112" viewBox="0 0 1364 112" fill="none" xmlns="http://www.w3.org/2000/svg">
<g opacity="0.2">
<mask id="mask0" mask-type="alpha" maskUnits="userSpaceOnUse" x="-99" y="0" width="1559" height="216">
<rect x="-99" width="1559" height="216" fill="url(#paint0_linear)"/>
</mask>
<g mask="url(#mask0)">
<path d="M220.056 15.8793C219.108 16.8271 219.108 18.3638 220.056 19.3116C221.004 20.2594 222.541 20.2594 223.488 19.3116L224.347 18.4535C225.294 17.5057 225.294 15.9691 224.347 15.0213C223.399 14.0735 221.862 14.0735 220.914 15.0213L220.056 15.8793Z" fill="white"/>
<path d="M388.842 77.6628C388.842 76.3224 389.928 75.2358 391.269 75.2358H393.696C395.036 75.2358 396.123 76.3224 396.123 77.6628C396.123 79.0032 395.036 80.0898 393.696 80.0898H391.269C389.928 80.0898 388.842 79.0032 388.842 77.6628Z" fill="white"/>
<path d="M397.337 77.6628C397.337 76.3224 398.423 75.2358 399.764 75.2358H402.191C403.531 75.2358 404.618 76.3224 404.618 77.6628C404.618 79.0032 403.531 80.0898 402.191 80.0898H399.764C398.423 80.0898 397.337 79.0032 397.337 77.6628Z" fill="white"/>
<path d="M408.258 75.2358C406.918 75.2358 405.831 76.3224 405.831 77.6628C405.831 79.0032 406.918 80.0898 408.258 80.0898H417.36C418.7 80.0898 419.787 79.0032 419.787 77.6628C419.787 76.3224 418.7 75.2358 417.36 75.2358H408.258Z" fill="white"/>
<path fill-rule="evenodd" clip-rule="evenodd" d="M88.0532 5.07125C88.7753 4.33084 89.8539 4.06201 90.8391 4.37686L111.648 11.0268C112.706 11.3649 113.454 12.3099 113.539 13.4171C113.625 14.5243 113.031 15.573 112.038 16.0697L103.439 20.3689L99.5524 28.5304C99.0762 29.5305 98.043 30.1437 96.937 30.0828C95.831 30.0218 94.8714 29.2988 94.5079 28.2525L87.4286 7.87353C87.0892 6.89654 87.331 5.81166 88.0532 5.07125ZM94.3794 11.241L97.4829 20.175L98.9125 17.1731C99.1742 16.6235 99.6121 16.1771 100.157 15.9048L103.595 14.1859L94.3794 11.241Z" fill="white"/>
<path fill-rule="evenodd" clip-rule="evenodd" d="M152.113 86.8538C152.163 86.8626 152.214 86.8714 152.266 86.8801C153.267 87.0479 154.669 87.2048 156.263 87.1623C159.47 87.0768 163.235 86.197 166.207 83.2254C169.198 80.2347 170.241 76.2732 170.479 72.8472C170.502 72.5144 170.518 72.1891 170.527 71.8732L162.691 79.709C161.743 80.6568 160.206 80.6568 159.258 79.709C158.31 78.7613 158.31 77.2246 159.258 76.2768L167.094 68.4409C166.778 68.4498 166.453 68.4652 166.12 68.4884C162.694 68.7272 158.732 69.7697 155.742 72.7604C152.77 75.7319 151.89 79.4968 151.805 82.7045C151.762 84.2983 151.919 85.7003 152.087 86.7008C152.095 86.753 152.104 86.804 152.113 86.8538ZM172.53 66.4381L173.056 64.0687C173.976 64.273 174.695 64.9918 174.899 65.9122L172.53 66.4381ZM172.53 66.4381C173.056 64.0687 173.054 64.0683 173.054 64.0683L173.052 64.0679L173.047 64.0668L173.034 64.0639L172.995 64.0557C172.964 64.0492 172.922 64.0406 172.869 64.0302C172.764 64.0095 172.617 63.982 172.433 63.9507C172.064 63.8882 171.542 63.8102 170.898 63.7417C169.614 63.6052 167.823 63.504 165.783 63.6462C161.739 63.928 156.449 65.1886 152.309 69.3282C148.15 73.4869 147.057 78.6437 146.952 82.5751C146.899 84.5508 147.093 86.2726 147.299 87.5036C147.403 88.1214 147.511 88.6218 147.595 88.976C147.638 89.1533 147.674 89.2945 147.702 89.3961C147.715 89.4469 147.727 89.4878 147.735 89.5184L147.746 89.5566L147.75 89.5698L147.752 89.5749L147.752 89.5771C147.752 89.5771 147.753 89.579 150.079 88.8875L147.753 89.579C147.987 90.3652 148.602 90.9802 149.388 91.2139L150.079 88.8875C149.388 91.2139 149.39 91.2144 149.39 91.2144L149.392 91.2151L149.397 91.2166L149.41 91.2204L149.448 91.2314C149.479 91.2401 149.52 91.2514 149.571 91.2651C149.672 91.2924 149.813 91.329 149.991 91.3712C150.345 91.4557 150.845 91.5636 151.463 91.6672C152.694 91.8736 154.416 92.0672 156.392 92.0145C160.323 91.9097 165.48 90.8165 169.639 86.6577C173.779 82.5181 175.04 77.2278 175.322 73.1847C175.464 71.1442 175.363 69.3536 175.226 68.0699C175.158 67.426 175.08 66.9039 175.017 66.535C174.986 66.3503 174.958 66.2036 174.938 66.0986C174.927 66.0461 174.919 66.004 174.912 65.9728L174.904 65.9342L174.901 65.9211L174.9 65.9161L174.9 65.914C174.9 65.914 174.899 65.9122 172.53 66.4381Z" fill="white"/>
<path d="M350.719 27.4074C351.667 28.3552 353.204 28.3552 354.152 27.4074C355.1 26.4596 355.1 24.923 354.152 23.9752L353.294 23.1171C352.346 22.1693 350.809 22.1693 349.861 23.1171C348.913 24.0649 348.913 25.6016 349.861 26.5493L350.719 27.4074Z" fill="white"/>
<path d="M345.142 21.83C346.09 22.7778 347.626 22.7778 348.574 21.83C349.522 20.8822 349.522 19.3455 348.574 18.3978L347.716 17.5397C346.768 16.5919 345.231 16.5919 344.284 17.5397C343.336 18.4875 343.336 20.0242 344.284 20.9719L345.142 21.83Z" fill="white"/>
<path d="M342.996 16.2526C342.049 17.2004 340.512 17.2004 339.564 16.2526L338.706 15.3945C337.758 14.4468 337.758 12.9101 338.706 11.9623C339.654 11.0145 341.191 11.0145 342.138 11.9623L342.996 12.8204C343.944 13.7681 343.944 15.3048 342.996 16.2526Z" fill="white"/>
<path d="M333.986 10.6752C334.934 11.623 336.471 11.623 337.419 10.6752C338.367 9.72741 338.367 8.19074 337.419 7.24295L336.561 6.38489C335.613 5.4371 334.076 5.4371 333.128 6.38489C332.181 7.33268 332.181 8.86935 333.128 9.81714L333.986 10.6752Z" fill="white"/>
<path d="M280.734 76.5534C279.786 77.5012 279.786 79.0379 280.734 79.9857C281.682 80.9334 283.218 80.9334 284.166 79.9857L285.024 79.1276C285.972 78.1798 285.972 76.6431 285.024 75.6953C284.076 74.7476 282.54 74.7476 281.592 75.6953L280.734 76.5534Z" fill="white"/>
<path d="M441.023 5.76403C441.023 4.2561 439.8 3.03369 438.292 3.03369C436.784 3.03369 435.562 4.2561 435.562 5.76403V11.2247C435.562 12.7326 436.784 13.955 438.292 13.955C439.8 13.955 441.023 12.7326 441.023 11.2247V5.76403Z" fill="white"/>
<path d="M441.023 23.3595C441.023 21.8516 439.8 20.6292 438.292 20.6292C436.784 20.6292 435.562 21.8516 435.562 23.3595V28.8202C435.562 30.3281 436.784 31.5505 438.292 31.5505C439.8 31.5505 441.023 30.3281 441.023 28.8202V23.3595Z" fill="white"/>
<path d="M441.629 17.2921C441.629 15.7842 442.852 14.5618 444.36 14.5618H449.821C451.329 14.5618 452.551 15.7842 452.551 17.2921C452.551 18.8 451.329 20.0225 449.821 20.0225H444.36C442.852 20.0225 441.629 18.8 441.629 17.2921Z" fill="white"/>
<path d="M426.764 14.5618C425.256 14.5618 424.033 15.7842 424.033 17.2921C424.033 18.8 425.256 20.0225 426.764 20.0225H432.225C433.733 20.0225 434.955 18.8 434.955 17.2921C434.955 15.7842 433.733 14.5618 432.225 14.5618H426.764Z" fill="white"/>
<path fill-rule="evenodd" clip-rule="evenodd" d="M493.955 66.8875C494.88 65.9171 496.416 65.8801 497.386 66.8047L511.462 80.2162C514.634 83.2384 512.495 88.5842 508.113 88.5842H489.575C485.286 88.5842 483.104 83.4299 486.09 80.3512L491.806 74.4565C492.739 73.4942 494.276 73.4706 495.238 74.4037C496.201 75.3368 496.224 76.8733 495.291 77.8355L489.575 83.7303L508.113 83.7303L494.038 70.3188C493.067 69.3941 493.03 67.8579 493.955 66.8875Z" fill="white"/>
<path d="M740.056 15.8793C739.108 16.8271 739.108 18.3638 740.056 19.3116C741.004 20.2594 742.541 20.2594 743.488 19.3116L744.347 18.4535C745.294 17.5057 745.294 15.9691 744.347 15.0213C743.399 14.0735 741.862 14.0735 740.914 15.0213L740.056 15.8793Z" fill="white"/>
<path d="M908.842 77.6628C908.842 76.3224 909.928 75.2358 911.269 75.2358H913.696C915.036 75.2358 916.123 76.3224 916.123 77.6628C916.123 79.0032 915.036 80.0898 913.696 80.0898H911.269C909.928 80.0898 908.842 79.0032 908.842 77.6628Z" fill="white"/>
<path d="M917.337 77.6628C917.337 76.3224 918.423 75.2358 919.764 75.2358H922.191C923.531 75.2358 924.618 76.3224 924.618 77.6628C924.618 79.0032 923.531 80.0898 922.191 80.0898H919.764C918.423 80.0898 917.337 79.0032 917.337 77.6628Z" fill="white"/>
<path d="M928.258 75.2358C926.918 75.2358 925.831 76.3224 925.831 77.6628C925.831 79.0032 926.918 80.0898 928.258 80.0898H937.36C938.7 80.0898 939.787 79.0032 939.787 77.6628C939.787 76.3224 938.7 75.2358 937.36 75.2358H928.258Z" fill="white"/>
<path d="M870.719 27.4074C871.667 28.3552 873.204 28.3552 874.152 27.4074C875.1 26.4596 875.1 24.923 874.152 23.9752L873.294 23.1171C872.346 22.1693 870.809 22.1693 869.861 23.1171C868.913 24.0649 868.913 25.6016 869.861 26.5493L870.719 27.4074Z" fill="white"/>
<path d="M865.142 21.83C866.09 22.7778 867.626 22.7778 868.574 21.83C869.522 20.8822 869.522 19.3455 868.574 18.3978L867.716 17.5397C866.768 16.5919 865.231 16.5919 864.284 17.5397C863.336 18.4875 863.336 20.0242 864.284 20.9719L865.142 21.83Z" fill="white"/>
<path d="M862.996 16.2526C862.049 17.2004 860.512 17.2004 859.564 16.2526L858.706 15.3945C857.758 14.4468 857.758 12.9101 858.706 11.9623C859.654 11.0145 861.191 11.0145 862.138 11.9623L862.996 12.8204C863.944 13.7681 863.944 15.3048 862.996 16.2526Z" fill="white"/>
<path d="M853.986 10.6752C854.934 11.623 856.471 11.623 857.419 10.6752C858.367 9.72741 858.367 8.19074 857.419 7.24295L856.561 6.38489C855.613 5.4371 854.076 5.4371 853.128 6.38489C852.18 7.33268 852.18 8.86935 853.128 9.81714L853.986 10.6752Z" fill="white"/>
<path d="M800.734 76.5534C799.786 77.5012 799.786 79.0379 800.734 79.9857C801.682 80.9334 803.218 80.9334 804.166 79.9857L805.024 79.1276C805.972 78.1798 805.972 76.6431 805.024 75.6953C804.076 74.7476 802.54 74.7476 801.592 75.6953L800.734 76.5534Z" fill="white"/>
<path d="M961.023 5.76403C961.023 4.2561 959.8 3.03369 958.292 3.03369C956.784 3.03369 955.562 4.2561 955.562 5.76403V11.2247C955.562 12.7326 956.784 13.955 958.292 13.955C959.8 13.955 961.023 12.7326 961.023 11.2247V5.76403Z" fill="white"/>
<path d="M961.023 23.3595C961.023 21.8516 959.8 20.6292 958.292 20.6292C956.784 20.6292 955.562 21.8516 955.562 23.3595V28.8202C955.562 30.3281 956.784 31.5505 958.292 31.5505C959.8 31.5505 961.023 30.3281 961.023 28.8202V23.3595Z" fill="white"/>
<path d="M961.629 17.2921C961.629 15.7842 962.852 14.5618 964.36 14.5618H969.821C971.329 14.5618 972.551 15.7842 972.551 17.2921C972.551 18.8 971.329 20.0225 969.821 20.0225H964.36C962.852 20.0225 961.629 18.8 961.629 17.2921Z" fill="white"/>
<path d="M946.764 14.5618C945.256 14.5618 944.033 15.7842 944.033 17.2921C944.033 18.8 945.256 20.0225 946.764 20.0225H952.225C953.733 20.0225 954.955 18.8 954.955 17.2921C954.955 15.7842 953.733 14.5618 952.225 14.5618H946.764Z" fill="white"/>
<path fill-rule="evenodd" clip-rule="evenodd" d="M1013.95 66.8875C1014.88 65.9171 1016.41 65.8801 1017.38 66.8047L1031.46 80.2162C1034.63 83.2384 1032.49 88.5842 1028.11 88.5842H1009.57C1005.28 88.5842 1003.1 83.4299 1006.09 80.3512L1011.8 74.4565C1012.74 73.4942 1014.27 73.4706 1015.24 74.4037C1016.2 75.3368 1016.22 76.8733 1015.29 77.8355L1009.57 83.7303L1028.11 83.7303L1014.04 70.3188C1013.07 69.3941 1013.03 67.8579 1013.95 66.8875Z" fill="white"/>
<path d="M1260.06 15.8793C1259.11 16.8271 1259.11 18.3638 1260.06 19.3116C1261 20.2594 1262.54 20.2594 1263.49 19.3116L1264.35 18.4535C1265.29 17.5057 1265.29 15.9691 1264.35 15.0213C1263.4 14.0735 1261.86 14.0735 1260.91 15.0213L1260.06 15.8793Z" fill="white"/>
<path fill-rule="evenodd" clip-rule="evenodd" d="M1128.05 5.07125C1128.78 4.33084 1129.85 4.06201 1130.84 4.37686L1151.65 11.0268C1152.71 11.3649 1153.45 12.3099 1153.54 13.4171C1153.62 14.5243 1153.03 15.573 1152.04 16.0697L1143.44 20.3689L1139.55 28.5304C1139.08 29.5305 1138.04 30.1437 1136.94 30.0828C1135.83 30.0218 1134.87 29.2988 1134.51 28.2525L1127.43 7.87353C1127.09 6.89654 1127.33 5.81166 1128.05 5.07125ZM1134.38 11.241L1137.48 20.175L1138.91 17.1731C1139.17 16.6235 1139.61 16.1771 1140.16 15.9048L1143.59 14.1859L1134.38 11.241Z" fill="white"/>
<path fill-rule="evenodd" clip-rule="evenodd" d="M1192.11 86.8538C1192.16 86.8626 1192.21 86.8714 1192.27 86.8801C1193.27 87.0479 1194.67 87.2048 1196.26 87.1623C1199.47 87.0768 1203.24 86.197 1206.21 83.2254C1209.2 80.2347 1210.24 76.2732 1210.48 72.8472C1210.5 72.5144 1210.52 72.1891 1210.53 71.8732L1202.69 79.709C1201.74 80.6568 1200.21 80.6568 1199.26 79.709C1198.31 78.7613 1198.31 77.2246 1199.26 76.2768L1207.09 68.4409C1206.78 68.4498 1206.45 68.4652 1206.12 68.4884C1202.69 68.7272 1198.73 69.7697 1195.74 72.7604C1192.77 75.7319 1191.89 79.4968 1191.8 82.7045C1191.76 84.2983 1191.92 85.7003 1192.09 86.7008C1192.1 86.753 1192.1 86.804 1192.11 86.8538ZM1212.53 66.4381L1213.06 64.0687C1213.98 64.273 1214.69 64.9918 1214.9 65.9122L1212.53 66.4381ZM1212.53 66.4381C1213.06 64.0687 1213.05 64.0683 1213.05 64.0683L1213.05 64.0679L1213.05 64.0668L1213.03 64.0639L1212.99 64.0557C1212.96 64.0492 1212.92 64.0406 1212.87 64.0302C1212.76 64.0095 1212.62 63.982 1212.43 63.9507C1212.06 63.8882 1211.54 63.8102 1210.9 63.7417C1209.61 63.6052 1207.82 63.504 1205.78 63.6462C1201.74 63.928 1196.45 65.1886 1192.31 69.3282C1188.15 73.4869 1187.06 78.6437 1186.95 82.5751C1186.9 84.5508 1187.09 86.2726 1187.3 87.5036C1187.4 88.1214 1187.51 88.6218 1187.6 88.976C1187.64 89.1533 1187.67 89.2945 1187.7 89.3961C1187.72 89.4469 1187.73 89.4878 1187.74 89.5184L1187.75 89.5566L1187.75 89.5698L1187.75 89.5749L1187.75 89.5771C1187.75 89.5771 1187.75 89.579 1190.08 88.8875L1187.75 89.579C1187.99 90.3652 1188.6 90.9802 1189.39 91.2139L1190.08 88.8875C1189.39 91.2139 1189.39 91.2144 1189.39 91.2144L1189.39 91.2151L1189.4 91.2166L1189.41 91.2204L1189.45 91.2314C1189.48 91.2401 1189.52 91.2514 1189.57 91.2651C1189.67 91.2924 1189.81 91.329 1189.99 91.3712C1190.35 91.4557 1190.85 91.5636 1191.46 91.6672C1192.69 91.8736 1194.42 92.0672 1196.39 92.0145C1200.32 91.9097 1205.48 90.8165 1209.64 86.6577C1213.78 82.5181 1215.04 77.2278 1215.32 73.1847C1215.46 71.1442 1215.36 69.3536 1215.23 68.0699C1215.16 67.426 1215.08 66.9039 1215.02 66.535C1214.99 66.3503 1214.96 66.2036 1214.94 66.0986C1214.93 66.0461 1214.92 66.004 1214.91 65.9728L1214.9 65.9342L1214.9 65.9211L1214.9 65.9161L1214.9 65.914C1214.9 65.914 1214.9 65.9122 1212.53 66.4381Z" fill="white"/>
<path d="M1320.73 76.5534C1319.79 77.5012 1319.79 79.0379 1320.73 79.9857C1321.68 80.9334 1323.22 80.9334 1324.17 79.9857L1325.02 79.1276C1325.97 78.1798 1325.97 76.6431 1325.02 75.6953C1324.08 74.7476 1322.54 74.7476 1321.59 75.6953L1320.73 76.5534Z" fill="white"/>
</g>
</g>
<defs>
<linearGradient id="paint0_linear" x1="680.5" y1="0" x2="680.906" y2="175.398" gradientUnits="userSpaceOnUse">
<stop stop-color="white"/>
<stop offset="1" stop-color="white" stop-opacity="0"/>
</linearGradient>
</defs>
</svg>
